<?xml version="1.0" encoding="UTF-8" standalone="no"?>
<!-- This is a Stata 16.1 generated SVG file (http://www.stata.com) -->

<svg version="1.1" width="5.50in" height="4.00in" viewBox="0 0 3960 2880" xmlns="http://www.w3.org/2000/svg" xmlns:xlink="http://www.w3.org/1999/xlink">
	<desc>Stata Graph - Graph</desc>
	<rect x="0" y="0" width="3960" height="2880" style="fill:#E1E6F0;stroke:none"/>
	<rect x="0.00" y="0.00" width="3959.88" height="2880.00" style="fill:#E1E6F0"/>
	<rect x="2.88" y="2.88" width="3954.12" height="2874.24" style="fill:none;stroke:#E1E6F0;stroke-width:5.76"/>
	<rect x="505.77" y="367.55" width="3353.25" height="2007.16" style="fill:#FFFFFF"/>
	<rect x="508.65" y="370.43" width="3347.49" height="2001.40" style="fill:none;stroke:#FFFFFF;stroke-width:5.76"/>
	<path d=" M569.13 2311.10 L579.89 2310.98 L590.66 2310.98 L601.42 2310.98 L612.19 2310.86 L623.08 2310.86 L633.85 2310.73 L644.61 2310.73 L655.38 2310.61 L666.15 2310.61 L677.04 2310.48 L687.80 2310.36 L698.57 2310.24 L709.34 2310.24 L720.10 2310.11 L730.99 2309.87 L741.76 2309.74 L752.52 2309.62 L763.29 2309.49 L774.06 2309.25 L784.95 2309.00 L795.71 2308.88 L806.48 2308.63 L817.25 2308.38 L828.01 2308.01 L838.90 2307.76 L849.67 2307.39 L860.43 2307.02 L871.20 2306.65 L881.97 2306.15 L892.86 2305.66 L903.62 2305.16 L914.39 2304.67 L925.15 2304.05 L935.92 2303.43 L946.81 2302.81 L957.58 2302.07 L968.34 2301.20 L979.11 2300.46 L989.88 2299.47 L1000.77 2298.60 L1011.53 2297.49 L1022.30 2296.38 L1033.07 2295.14 L1043.83 2293.90 L1054.72 2292.54 L1065.49 2291.06 L1076.25 2289.57 L1087.02 2287.84 L1097.79 2286.11 L1108.68 2284.25 L1119.44 2282.27 L1130.21 2280.17 L1140.97 2277.94 L1151.74 2275.59 L1162.63 2272.99 L1173.40 2270.39 L1184.16 2267.54 L1194.93 2264.57 L1205.70 2261.35 L1216.59 2258.01 L1227.35 2254.55 L1238.12 2250.84 L1248.88 2247.00 L1259.78 2242.92 L1270.54 2238.58 L1281.31 2234.00 L1292.07 2229.30 L1302.84 2224.35 L1313.73 2219.15 L1324.50 2213.71 L1335.26 2208.02 L1346.03 2202.08 L1356.80 2195.89 L1367.68 2189.45 L1378.45 2182.77 L1389.22 2175.72 L1399.98 2168.54 L1410.75 2160.87 L1421.64 2153.07 L1432.41 2144.90 L1443.17 2136.49 L1453.94 2127.82 L1464.70 2118.79 L1475.60 2109.51 L1486.36 2099.86 L1497.13 2089.96 L1507.89 2079.68 L1518.66 2069.16 L1529.55 2058.40 L1540.32 2047.26 L1551.08 2035.87 L1561.85 2024.24 L1572.62 2012.24 L1583.51 1999.99 L1594.27 1987.49 L1605.04 1974.74 L1615.80 1961.75 L1626.57 1948.50 L1637.46 1935.02 L1648.23 1921.28 L1658.99 1907.29 L1669.76 1893.19 L1680.53 1878.95 L1691.41 1864.48 L1702.18 1849.75 L1712.95 1835.02 L1723.71 1820.17 L1734.48 1805.07 L1745.37 1790.10 L1756.14 1774.88 L1766.90 1759.78 L1777.67 1744.56 L1788.43 1729.34 L1799.33 1714.11 L1810.09 1698.89 L1820.86 1683.92 L1831.62 1668.82 L1842.39 1653.97 L1853.28 1639.24 L1864.05 1624.64 L1874.81 1610.16 L1885.58 1596.05 L1896.35 1582.07 L1907.23 1568.33 L1918.00 1554.97 L1928.77 1541.85 L1939.53 1529.10 L1950.30 1516.60 L1961.19 1504.60 L1971.96 1492.97 L1982.72 1481.71 L1993.49 1471.06 L2004.26 1460.67 L2015.14 1450.89 L2025.91 1441.61 L2036.68 1432.82 L2047.44 1424.65 L2058.21 1416.98 L2069.10 1409.93 L2079.87 1403.49 L2090.63 1397.55 L2101.40 1392.35 L2112.16 1387.78 L2123.05 1383.69 L2133.82 1380.47 L2144.59 1377.75 L2155.35 1375.77 L2166.12 1374.41 L2177.01 1373.67 L2187.78 1373.67 L2198.54 1374.41 L2209.31 1375.77 L2220.07 1377.75 L2230.97 1380.47 L2241.73 1383.69 L2252.50 1387.78 L2263.26 1392.35 L2274.15 1397.55 L2284.92 1403.49 L2295.69 1409.93 L2306.45 1416.98 L2317.22 1424.65 L2328.11 1432.82 L2338.88 1441.61 L2349.64 1450.89 L2360.41 1460.67 L2371.17 1471.06 L2382.06 1481.71 L2392.83 1492.97 L2403.60 1504.60 L2414.36 1516.60 L2425.13 1529.10 L2436.02 1541.85 L2446.78 1554.97 L2457.55 1568.33 L2468.32 1582.07 L2479.08 1596.05 L2489.97 1610.16 L2500.74 1624.64 L2511.51 1639.24 L2522.27 1653.97 L2533.04 1668.82 L2543.93 1683.92 L2554.70 1698.89 L2565.46 1714.11 L2576.23 1729.34 L2586.99 1744.56 L2597.88 1759.78 L2608.65 1774.88 L2619.42 1790.10 L2630.18 1805.07 L2640.95 1820.17 L2651.84 1835.02 L2662.61 1849.75 L2673.37 1864.48 L2684.14 1878.95 L2694.90 1893.19 L2705.79 1907.29 L2716.56 1921.28 L2727.33 1935.02 L2738.09 1948.50 L2748.86 1961.75 L2759.75 1974.74 L2770.51 1987.49 L2781.28 1999.99 L2792.05 2012.24 L2802.81 2024.24 L2813.70 2035.87 L2824.47 2047.26 L2835.24 2058.40 L2846.00 2069.16 L2856.77 2079.68 L2867.66 2089.96 L2878.43 2099.86 L2889.19 2109.51 L2899.96 2118.79 L2910.72 2127.82 L2921.61 2136.49 L2932.38 2144.90 L2943.15 2153.07 L2953.91 2160.87 L2964.68 2168.54 L2975.57 2175.72 L2986.34 2182.77 L2997.10 2189.45 L3007.87 2195.89 L3018.63 2202.08 L3029.52 2208.02 L3040.29 2213.71 L3051.06 2219.15 L3061.82 2224.35 L3072.59 2229.30 L3083.48 2234.00 L3094.24 2238.58 L3105.01 2242.92 L3115.78 2247.00 L3126.54 2250.84 L3137.43 2254.55 L3148.20 2258.01 L3158.97 2261.35 L3169.73 2264.57 L3180.50 2267.54 L3191.39 2270.39 L3202.16 2272.99 L3212.92 2275.59 L3223.69 2277.94 L3234.45 2280.17 L3245.34 2282.27 L3256.11 2284.25 L3266.88 2286.11 L3277.64 2287.84 L3288.53 2289.57 L3299.30 2291.06 L3310.07 2292.54 L3320.83 2293.90 L3331.60 2295.14 L3342.49 2296.38 L3353.25 2297.49 L3364.02 2298.60 L3374.79 2299.47 L3385.55 2300.46 L3396.44 2301.20 L3407.21 2302.07 L3417.97 2302.81 L3428.74 2303.43 L3439.51 2304.05 L3450.40 2304.67 L3461.16 2305.16 L3471.93 2305.66 L3482.70 2306.15 L3493.46 2306.65 L3504.35 2307.02 L3515.12 2307.39 L3525.89 2307.76 L3536.65 2308.01 L3547.42 2308.38 L3558.31 2308.63 L3569.07 2308.88 L3579.84 2309.00 L3590.61 2309.25 L3601.37 2309.49 L3612.26 2309.62 L3623.03 2309.74 L3633.80 2309.87 L3644.56 2310.11 L3655.33 2310.24 L3666.22 2310.24 L3676.98 2310.36 L3687.75 2310.48 L3698.52 2310.61 L3709.28 2310.61 L3720.17 2310.73 L3730.94 2310.73 L3741.70 2310.86 L3752.47 2310.86 L3763.24 2310.98 L3774.13 2310.98 L3784.89 2310.98 L3795.66 2311.10" stroke-linejoin="round" style="fill:none;stroke:#273F6F;stroke-width:8.64"/>
	<line x1="569.13" y1="2295.63" x2="579.89" y2="2295.14" style="stroke:#90353B;stroke-width:8.64"/>
	<line x1="579.89" y1="2295.14" x2="590.66" y2="2294.77" style="stroke:#90353B;stroke-width:8.64"/>
	<line x1="590.66" y1="2294.77" x2="601.42" y2="2294.27" style="stroke:#90353B;stroke-width:8.64"/>
	<line x1="601.42" y1="2294.27" x2="612.19" y2="2293.78" style="stroke:#90353B;stroke-width:8.64"/>
	<line x1="612.19" y1="2293.78" x2="623.08" y2="2293.28" style="stroke:#90353B;stroke-width:8.64"/>
	<line x1="623.08" y1="2293.28" x2="626.67" y2="2293.16" style="stroke:#90353B;stroke-width:8.64"/>
	<line x1="655.50" y1="2291.80" x2="666.15" y2="2291.18" style="stroke:#90353B;stroke-width:8.64"/>
	<line x1="666.15" y1="2291.18" x2="677.04" y2="2290.68" style="stroke:#90353B;stroke-width:8.64"/>
	<line x1="677.04" y1="2290.68" x2="687.80" y2="2290.07" style="stroke:#90353B;stroke-width:8.64"/>
	<line x1="687.80" y1="2290.07" x2="698.57" y2="2289.45" style="stroke:#90353B;stroke-width:8.64"/>
	<line x1="698.57" y1="2289.45" x2="709.34" y2="2288.83" style="stroke:#90353B;stroke-width:8.64"/>
	<line x1="709.34" y1="2288.83" x2="713.05" y2="2288.58" style="stroke:#90353B;stroke-width:8.64"/>
	<line x1="741.88" y1="2286.85" x2="752.52" y2="2286.11" style="stroke:#90353B;stroke-width:8.64"/>
	<line x1="752.52" y1="2286.11" x2="763.29" y2="2285.36" style="stroke:#90353B;stroke-width:8.64"/>
	<line x1="763.29" y1="2285.36" x2="774.06" y2="2284.62" style="stroke:#90353B;stroke-width:8.64"/>
	<line x1="774.06" y1="2284.62" x2="784.95" y2="2283.88" style="stroke:#90353B;stroke-width:8.64"/>
	<line x1="784.95" y1="2283.88" x2="795.71" y2="2283.01" style="stroke:#90353B;stroke-width:8.64"/>
	<line x1="795.71" y1="2283.01" x2="799.42" y2="2282.64" style="stroke:#90353B;stroke-width:8.64"/>
	<line x1="828.13" y1="2280.41" x2="838.90" y2="2279.55" style="stroke:#90353B;stroke-width:8.64"/>
	<line x1="838.90" y1="2279.55" x2="849.67" y2="2278.56" style="stroke:#90353B;stroke-width:8.64"/>
	<line x1="849.67" y1="2278.56" x2="860.43" y2="2277.57" style="stroke:#90353B;stroke-width:8.64"/>
	<line x1="860.43" y1="2277.57" x2="871.20" y2="2276.58" style="stroke:#90353B;stroke-width:8.64"/>
	<line x1="871.20" y1="2276.58" x2="881.97" y2="2275.46" style="stroke:#90353B;stroke-width:8.64"/>
	<line x1="881.97" y1="2275.46" x2="885.43" y2="2275.09" style="stroke:#90353B;stroke-width:8.64"/>
	<line x1="914.02" y1="2272.12" x2="914.39" y2="2272.12" style="stroke:#90353B;stroke-width:8.64"/>
	<line x1="914.39" y1="2272.12" x2="925.15" y2="2270.88" style="stroke:#90353B;stroke-width:8.64"/>
	<line x1="925.15" y1="2270.88" x2="935.92" y2="2269.65" style="stroke:#90353B;stroke-width:8.64"/>
	<line x1="935.92" y1="2269.65" x2="946.81" y2="2268.28" style="stroke:#90353B;stroke-width:8.64"/>
	<line x1="946.81" y1="2268.28" x2="957.58" y2="2267.05" style="stroke:#90353B;stroke-width:8.64"/>
	<line x1="957.58" y1="2267.05" x2="968.34" y2="2265.56" style="stroke:#90353B;stroke-width:8.64"/>
	<line x1="968.34" y1="2265.56" x2="971.19" y2="2265.19" style="stroke:#90353B;stroke-width:8.64"/>
	<line x1="999.78" y1="2261.23" x2="1000.77" y2="2261.11" style="stroke:#90353B;stroke-width:8.64"/>
	<line x1="1000.77" y1="2261.11" x2="1011.53" y2="2259.62" style="stroke:#90353B;stroke-width:8.64"/>
	<line x1="1011.53" y1="2259.62" x2="1022.30" y2="2257.89" style="stroke:#90353B;stroke-width:8.64"/>
	<line x1="1022.30" y1="2257.89" x2="1033.07" y2="2256.16" style="stroke:#90353B;stroke-width:8.64"/>
	<line x1="1033.07" y1="2256.16" x2="1043.83" y2="2254.42" style="stroke:#90353B;stroke-width:8.64"/>
	<line x1="1043.83" y1="2254.42" x2="1054.72" y2="2252.57" style="stroke:#90353B;stroke-width:8.64"/>
	<line x1="1054.72" y1="2252.57" x2="1056.58" y2="2252.20" style="stroke:#90353B;stroke-width:8.64"/>
	<line x1="1085.04" y1="2247.12" x2="1087.02" y2="2246.75" style="stroke:#90353B;stroke-width:8.64"/>
	<line x1="1087.02" y1="2246.75" x2="1097.79" y2="2244.65" style="stroke:#90353B;stroke-width:8.64"/>
	<line x1="1097.79" y1="2244.65" x2="1108.68" y2="2242.42" style="stroke:#90353B;stroke-width:8.64"/>
	<line x1="1108.68" y1="2242.42" x2="1119.44" y2="2240.19" style="stroke:#90353B;stroke-width:8.64"/>
	<line x1="1119.44" y1="2240.19" x2="1130.21" y2="2237.84" style="stroke:#90353B;stroke-width:8.64"/>
	<line x1="1130.21" y1="2237.84" x2="1140.97" y2="2235.49" style="stroke:#90353B;stroke-width:8.64"/>
	<line x1="1140.97" y1="2235.49" x2="1141.35" y2="2235.37" style="stroke:#90353B;stroke-width:8.64"/>
	<line x1="1169.31" y1="2228.68" x2="1173.40" y2="2227.69" style="stroke:#90353B;stroke-width:8.64"/>
	<line x1="1173.40" y1="2227.69" x2="1184.16" y2="2224.85" style="stroke:#90353B;stroke-width:8.64"/>
	<line x1="1184.16" y1="2224.85" x2="1194.93" y2="2222.00" style="stroke:#90353B;stroke-width:8.64"/>
	<line x1="1194.93" y1="2222.00" x2="1205.70" y2="2219.03" style="stroke:#90353B;stroke-width:8.64"/>
	<line x1="1205.70" y1="2219.03" x2="1216.59" y2="2215.94" style="stroke:#90353B;stroke-width:8.64"/>
	<line x1="1216.59" y1="2215.94" x2="1224.88" y2="2213.46" style="stroke:#90353B;stroke-width:8.64"/>
	<line x1="1252.35" y1="2204.92" x2="1259.78" y2="2202.45" style="stroke:#90353B;stroke-width:8.64"/>
	<line x1="1259.78" y1="2202.45" x2="1270.54" y2="2198.86" style="stroke:#90353B;stroke-width:8.64"/>
	<line x1="1270.54" y1="2198.86" x2="1281.31" y2="2195.02" style="stroke:#90353B;stroke-width:8.64"/>
	<line x1="1281.31" y1="2195.02" x2="1292.07" y2="2191.06" style="stroke:#90353B;stroke-width:8.64"/>
	<line x1="1292.07" y1="2191.06" x2="1302.84" y2="2186.98" style="stroke:#90353B;stroke-width:8.64"/>
	<line x1="1302.84" y1="2186.98" x2="1306.68" y2="2185.49" style="stroke:#90353B;stroke-width:8.64"/>
	<line x1="1333.41" y1="2174.73" x2="1335.26" y2="2173.86" style="stroke:#90353B;stroke-width:8.64"/>
	<line x1="1335.26" y1="2173.86" x2="1346.03" y2="2169.28" style="stroke:#90353B;stroke-width:8.64"/>
	<line x1="1346.03" y1="2169.28" x2="1356.80" y2="2164.46" style="stroke:#90353B;stroke-width:8.64"/>
	<line x1="1356.80" y1="2164.46" x2="1367.68" y2="2159.38" style="stroke:#90353B;stroke-width:8.64"/>
	<line x1="1367.68" y1="2159.38" x2="1378.45" y2="2154.18" style="stroke:#90353B;stroke-width:8.64"/>
	<line x1="1378.45" y1="2154.18" x2="1385.75" y2="2150.59" style="stroke:#90353B;stroke-width:8.64"/>
	<line x1="1411.37" y1="2137.48" x2="1421.64" y2="2131.78" style="stroke:#90353B;stroke-width:8.64"/>
	<line x1="1421.64" y1="2131.78" x2="1432.41" y2="2125.72" style="stroke:#90353B;stroke-width:8.64"/>
	<line x1="1432.41" y1="2125.72" x2="1443.17" y2="2119.41" style="stroke:#90353B;stroke-width:8.64"/>
	<line x1="1443.17" y1="2119.41" x2="1453.94" y2="2112.85" style="stroke:#90353B;stroke-width:8.64"/>
	<line x1="1453.94" y1="2112.85" x2="1461.12" y2="2108.39" style="stroke:#90353B;stroke-width:8.64"/>
	<line x1="1485.25" y1="2092.80" x2="1486.36" y2="2092.06" style="stroke:#90353B;stroke-width:8.64"/>
	<line x1="1486.36" y1="2092.06" x2="1497.13" y2="2084.76" style="stroke:#90353B;stroke-width:8.64"/>
	<line x1="1497.13" y1="2084.76" x2="1507.89" y2="2077.08" style="stroke:#90353B;stroke-width:8.64"/>
	<line x1="1507.89" y1="2077.08" x2="1518.66" y2="2069.29" style="stroke:#90353B;stroke-width:8.64"/>
	<line x1="1518.66" y1="2069.29" x2="1529.55" y2="2061.24" style="stroke:#90353B;stroke-width:8.64"/>
	<line x1="1529.55" y1="2061.24" x2="1532.15" y2="2059.26" style="stroke:#90353B;stroke-width:8.64"/>
	<line x1="1554.80" y1="2041.44" x2="1561.85" y2="2035.63" style="stroke:#90353B;stroke-width:8.64"/>
	<line x1="1561.85" y1="2035.63" x2="1572.62" y2="2026.59" style="stroke:#90353B;stroke-width:8.64"/>
	<line x1="1572.62" y1="2026.59" x2="1583.51" y2="2017.31" style="stroke:#90353B;stroke-width:8.64"/>
	<line x1="1583.51" y1="2017.31" x2="1594.27" y2="2007.78" style="stroke:#90353B;stroke-width:8.64"/>
	<line x1="1594.27" y1="2007.78" x2="1598.48" y2="2003.95" style="stroke:#90353B;stroke-width:8.64"/>
	<line x1="1619.52" y1="1984.27" x2="1626.57" y2="1977.59" style="stroke:#90353B;stroke-width:8.64"/>
	<line x1="1626.57" y1="1977.59" x2="1637.46" y2="1967.07" style="stroke:#90353B;stroke-width:8.64"/>
	<line x1="1637.46" y1="1967.07" x2="1648.23" y2="1956.18" style="stroke:#90353B;stroke-width:8.64"/>
	<line x1="1648.23" y1="1956.18" x2="1658.99" y2="1945.16" style="stroke:#90353B;stroke-width:8.64"/>
	<line x1="1658.99" y1="1945.16" x2="1660.35" y2="1943.68" style="stroke:#90353B;stroke-width:8.64"/>
	<line x1="1680.03" y1="1922.64" x2="1680.53" y2="1922.27" style="stroke:#90353B;stroke-width:8.64"/>
	<line x1="1680.53" y1="1922.27" x2="1691.41" y2="1910.51" style="stroke:#90353B;stroke-width:8.64"/>
	<line x1="1691.41" y1="1910.51" x2="1702.18" y2="1898.51" style="stroke:#90353B;stroke-width:8.64"/>
	<line x1="1702.18" y1="1898.51" x2="1712.95" y2="1886.26" style="stroke:#90353B;stroke-width:8.64"/>
	<line x1="1712.95" y1="1886.26" x2="1718.52" y2="1879.82" style="stroke:#90353B;stroke-width:8.64"/>
	<line x1="1737.33" y1="1857.92" x2="1745.37" y2="1848.26" style="stroke:#90353B;stroke-width:8.64"/>
	<line x1="1745.37" y1="1848.26" x2="1756.14" y2="1835.15" style="stroke:#90353B;stroke-width:8.64"/>
	<line x1="1756.14" y1="1835.15" x2="1766.90" y2="1821.90" style="stroke:#90353B;stroke-width:8.64"/>
	<line x1="1766.90" y1="1821.90" x2="1773.83" y2="1813.37" style="stroke:#90353B;stroke-width:8.64"/>
	<line x1="1791.65" y1="1790.84" x2="1799.33" y2="1781.19" style="stroke:#90353B;stroke-width:8.64"/>
	<line x1="1799.33" y1="1781.19" x2="1810.09" y2="1767.45" style="stroke:#90353B;stroke-width:8.64"/>
	<line x1="1810.09" y1="1767.45" x2="1820.86" y2="1753.59" style="stroke:#90353B;stroke-width:8.64"/>
	<line x1="1820.86" y1="1753.59" x2="1827.17" y2="1745.42" style="stroke:#90353B;stroke-width:8.64"/>
	<line x1="1844.74" y1="1722.65" x2="1853.28" y2="1711.64" style="stroke:#90353B;stroke-width:8.64"/>
	<line x1="1853.28" y1="1711.64" x2="1864.05" y2="1697.53" style="stroke:#90353B;stroke-width:8.64"/>
	<line x1="1864.05" y1="1697.53" x2="1874.81" y2="1683.55" style="stroke:#90353B;stroke-width:8.64"/>
	<line x1="1874.81" y1="1683.55" x2="1879.76" y2="1676.99" style="stroke:#90353B;stroke-width:8.64"/>
	<line x1="1897.46" y1="1654.22" x2="1907.23" y2="1641.97" style="stroke:#90353B;stroke-width:8.64"/>
	<line x1="1907.23" y1="1641.97" x2="1918.00" y2="1628.35" style="stroke:#90353B;stroke-width:8.64"/>
	<line x1="1918.00" y1="1628.35" x2="1928.77" y2="1614.99" style="stroke:#90353B;stroke-width:8.64"/>
	<line x1="1928.77" y1="1614.99" x2="1933.35" y2="1609.30" style="stroke:#90353B;stroke-width:8.64"/>
	<line x1="1951.79" y1="1587.14" x2="1961.19" y2="1576.13" style="stroke:#90353B;stroke-width:8.64"/>
	<line x1="1961.19" y1="1576.13" x2="1971.96" y2="1563.63" style="stroke:#90353B;stroke-width:8.64"/>
	<line x1="1971.96" y1="1563.63" x2="1982.72" y2="1551.63" style="stroke:#90353B;stroke-width:8.64"/>
	<line x1="1982.72" y1="1551.63" x2="1989.78" y2="1543.95" style="stroke:#90353B;stroke-width:8.64"/>
	<line x1="2009.82" y1="1523.16" x2="2015.14" y2="1517.96" style="stroke:#90353B;stroke-width:8.64"/>
	<line x1="2015.14" y1="1517.96" x2="2025.91" y2="1507.69" style="stroke:#90353B;stroke-width:8.64"/>
	<line x1="2025.91" y1="1507.69" x2="2036.68" y2="1497.92" style="stroke:#90353B;stroke-width:8.64"/>
	<line x1="2036.68" y1="1497.92" x2="2047.44" y2="1488.64" style="stroke:#90353B;stroke-width:8.64"/>
	<line x1="2047.44" y1="1488.64" x2="2052.52" y2="1484.55" style="stroke:#90353B;stroke-width:8.64"/>
	<line x1="2075.66" y1="1467.35" x2="2079.87" y2="1464.50" style="stroke:#90353B;stroke-width:8.64"/>
	<line x1="2079.87" y1="1464.50" x2="2090.63" y2="1457.82" style="stroke:#90353B;stroke-width:8.64"/>
	<line x1="2090.63" y1="1457.82" x2="2101.40" y2="1451.76" style="stroke:#90353B;stroke-width:8.64"/>
	<line x1="2101.40" y1="1451.76" x2="2112.16" y2="1446.31" style="stroke:#90353B;stroke-width:8.64"/>
	<line x1="2112.16" y1="1446.31" x2="2123.05" y2="1441.73" style="stroke:#90353B;stroke-width:8.64"/>
	<line x1="2123.05" y1="1441.73" x2="2126.52" y2="1440.50" style="stroke:#90353B;stroke-width:8.64"/>
	<line x1="2154.12" y1="1432.57" x2="2155.35" y2="1432.33" style="stroke:#90353B;stroke-width:8.64"/>
	<line x1="2155.35" y1="1432.33" x2="2166.12" y2="1430.84" style="stroke:#90353B;stroke-width:8.64"/>
	<line x1="2166.12" y1="1430.84" x2="2177.01" y2="1429.98" style="stroke:#90353B;stroke-width:8.64"/>
	<line x1="2177.01" y1="1429.98" x2="2187.78" y2="1429.98" style="stroke:#90353B;stroke-width:8.64"/>
	<line x1="2187.78" y1="1429.98" x2="2198.54" y2="1430.84" style="stroke:#90353B;stroke-width:8.64"/>
	<line x1="2198.54" y1="1430.84" x2="2209.31" y2="1432.33" style="stroke:#90353B;stroke-width:8.64"/>
	<line x1="2209.31" y1="1432.33" x2="2211.29" y2="1432.70" style="stroke:#90353B;stroke-width:8.64"/>
	<line x1="2238.89" y1="1440.74" x2="2241.73" y2="1441.73" style="stroke:#90353B;stroke-width:8.64"/>
	<line x1="2241.73" y1="1441.73" x2="2252.50" y2="1446.31" style="stroke:#90353B;stroke-width:8.64"/>
	<line x1="2252.50" y1="1446.31" x2="2263.26" y2="1451.76" style="stroke:#90353B;stroke-width:8.64"/>
	<line x1="2263.26" y1="1451.76" x2="2274.15" y2="1457.82" style="stroke:#90353B;stroke-width:8.64"/>
	<line x1="2274.15" y1="1457.82" x2="2284.92" y2="1464.50" style="stroke:#90353B;stroke-width:8.64"/>
	<line x1="2284.92" y1="1464.50" x2="2289.62" y2="1467.72" style="stroke:#90353B;stroke-width:8.64"/>
	<line x1="2312.64" y1="1485.05" x2="2317.22" y2="1488.64" style="stroke:#90353B;stroke-width:8.64"/>
	<line x1="2317.22" y1="1488.64" x2="2328.11" y2="1497.92" style="stroke:#90353B;stroke-width:8.64"/>
	<line x1="2328.11" y1="1497.92" x2="2338.88" y2="1507.69" style="stroke:#90353B;stroke-width:8.64"/>
	<line x1="2338.88" y1="1507.69" x2="2349.64" y2="1517.96" style="stroke:#90353B;stroke-width:8.64"/>
	<line x1="2349.64" y1="1517.96" x2="2355.33" y2="1523.66" style="stroke:#90353B;stroke-width:8.64"/>
	<line x1="2375.26" y1="1544.32" x2="2382.06" y2="1551.63" style="stroke:#90353B;stroke-width:8.64"/>
	<line x1="2382.06" y1="1551.63" x2="2392.83" y2="1563.63" style="stroke:#90353B;stroke-width:8.64"/>
	<line x1="2392.83" y1="1563.63" x2="2403.60" y2="1576.13" style="stroke:#90353B;stroke-width:8.64"/>
	<line x1="2403.60" y1="1576.13" x2="2413.37" y2="1587.51" style="stroke:#90353B;stroke-width:8.64"/>
	<line x1="2431.69" y1="1609.79" x2="2436.02" y2="1614.99" style="stroke:#90353B;stroke-width:8.64"/>
	<line x1="2436.02" y1="1614.99" x2="2446.78" y2="1628.35" style="stroke:#90353B;stroke-width:8.64"/>
	<line x1="2446.78" y1="1628.35" x2="2457.55" y2="1641.97" style="stroke:#90353B;stroke-width:8.64"/>
	<line x1="2457.55" y1="1641.97" x2="2467.57" y2="1654.84" style="stroke:#90353B;stroke-width:8.64"/>
	<line x1="2485.27" y1="1677.48" x2="2489.97" y2="1683.55" style="stroke:#90353B;stroke-width:8.64"/>
	<line x1="2489.97" y1="1683.55" x2="2500.74" y2="1697.53" style="stroke:#90353B;stroke-width:8.64"/>
	<line x1="2500.74" y1="1697.53" x2="2511.51" y2="1711.64" style="stroke:#90353B;stroke-width:8.64"/>
	<line x1="2511.51" y1="1711.64" x2="2520.42" y2="1723.27" style="stroke:#90353B;stroke-width:8.64"/>
	<line x1="2538.11" y1="1746.04" x2="2543.93" y2="1753.59" style="stroke:#90353B;stroke-width:8.64"/>
	<line x1="2543.93" y1="1753.59" x2="2554.70" y2="1767.45" style="stroke:#90353B;stroke-width:8.64"/>
	<line x1="2554.70" y1="1767.45" x2="2565.46" y2="1781.19" style="stroke:#90353B;stroke-width:8.64"/>
	<line x1="2565.46" y1="1781.19" x2="2573.51" y2="1791.46" style="stroke:#90353B;stroke-width:8.64"/>
	<line x1="2591.45" y1="1813.98" x2="2597.88" y2="1821.90" style="stroke:#90353B;stroke-width:8.64"/>
	<line x1="2597.88" y1="1821.90" x2="2608.65" y2="1835.15" style="stroke:#90353B;stroke-width:8.64"/>
	<line x1="2608.65" y1="1835.15" x2="2619.42" y2="1848.26" style="stroke:#90353B;stroke-width:8.64"/>
	<line x1="2619.42" y1="1848.26" x2="2627.95" y2="1858.41" style="stroke:#90353B;stroke-width:8.64"/>
	<line x1="2646.76" y1="1880.44" x2="2651.84" y2="1886.26" style="stroke:#90353B;stroke-width:8.64"/>
	<line x1="2651.84" y1="1886.26" x2="2662.61" y2="1898.51" style="stroke:#90353B;stroke-width:8.64"/>
	<line x1="2662.61" y1="1898.51" x2="2673.37" y2="1910.51" style="stroke:#90353B;stroke-width:8.64"/>
	<line x1="2673.37" y1="1910.51" x2="2684.14" y2="1922.27" style="stroke:#90353B;stroke-width:8.64"/>
	<line x1="2684.14" y1="1922.27" x2="2685.13" y2="1923.26" style="stroke:#90353B;stroke-width:8.64"/>
	<line x1="2704.80" y1="1944.30" x2="2705.79" y2="1945.16" style="stroke:#90353B;stroke-width:8.64"/>
	<line x1="2705.79" y1="1945.16" x2="2716.56" y2="1956.18" style="stroke:#90353B;stroke-width:8.64"/>
	<line x1="2716.56" y1="1956.18" x2="2727.33" y2="1967.07" style="stroke:#90353B;stroke-width:8.64"/>
	<line x1="2727.33" y1="1967.07" x2="2738.09" y2="1977.59" style="stroke:#90353B;stroke-width:8.64"/>
	<line x1="2738.09" y1="1977.59" x2="2745.64" y2="1984.89" style="stroke:#90353B;stroke-width:8.64"/>
	<line x1="2766.80" y1="2004.44" x2="2770.51" y2="2007.78" style="stroke:#90353B;stroke-width:8.64"/>
	<line x1="2770.51" y1="2007.78" x2="2781.28" y2="2017.31" style="stroke:#90353B;stroke-width:8.64"/>
	<line x1="2781.28" y1="2017.31" x2="2792.05" y2="2026.59" style="stroke:#90353B;stroke-width:8.64"/>
	<line x1="2792.05" y1="2026.59" x2="2802.81" y2="2035.63" style="stroke:#90353B;stroke-width:8.64"/>
	<line x1="2802.81" y1="2035.63" x2="2810.61" y2="2041.82" style="stroke:#90353B;stroke-width:8.64"/>
	<line x1="2833.26" y1="2059.64" x2="2835.24" y2="2061.24" style="stroke:#90353B;stroke-width:8.64"/>
	<line x1="2835.24" y1="2061.24" x2="2846.00" y2="2069.29" style="stroke:#90353B;stroke-width:8.64"/>
	<line x1="2846.00" y1="2069.29" x2="2856.77" y2="2077.08" style="stroke:#90353B;stroke-width:8.64"/>
	<line x1="2856.77" y1="2077.08" x2="2867.66" y2="2084.76" style="stroke:#90353B;stroke-width:8.64"/>
	<line x1="2867.66" y1="2084.76" x2="2878.43" y2="2092.06" style="stroke:#90353B;stroke-width:8.64"/>
	<line x1="2878.43" y1="2092.06" x2="2880.03" y2="2093.05" style="stroke:#90353B;stroke-width:8.64"/>
	<line x1="2904.16" y1="2108.77" x2="2910.72" y2="2112.85" style="stroke:#90353B;stroke-width:8.64"/>
	<line x1="2910.72" y1="2112.85" x2="2921.61" y2="2119.41" style="stroke:#90353B;stroke-width:8.64"/>
	<line x1="2921.61" y1="2119.41" x2="2932.38" y2="2125.72" style="stroke:#90353B;stroke-width:8.64"/>
	<line x1="2932.38" y1="2125.72" x2="2943.15" y2="2131.78" style="stroke:#90353B;stroke-width:8.64"/>
	<line x1="2943.15" y1="2131.78" x2="2953.91" y2="2137.72" style="stroke:#90353B;stroke-width:8.64"/>
	<line x1="2979.53" y1="2150.84" x2="2986.34" y2="2154.18" style="stroke:#90353B;stroke-width:8.64"/>
	<line x1="2986.34" y1="2154.18" x2="2997.10" y2="2159.38" style="stroke:#90353B;stroke-width:8.64"/>
	<line x1="2997.10" y1="2159.38" x2="3007.87" y2="2164.46" style="stroke:#90353B;stroke-width:8.64"/>
	<line x1="3007.87" y1="2164.46" x2="3018.63" y2="2169.28" style="stroke:#90353B;stroke-width:8.64"/>
	<line x1="3018.63" y1="2169.28" x2="3029.52" y2="2173.86" style="stroke:#90353B;stroke-width:8.64"/>
	<line x1="3029.52" y1="2173.86" x2="3032.00" y2="2174.97" style="stroke:#90353B;stroke-width:8.64"/>
	<line x1="3058.61" y1="2185.74" x2="3061.82" y2="2186.98" style="stroke:#90353B;stroke-width:8.64"/>
	<line x1="3061.82" y1="2186.98" x2="3072.59" y2="2191.06" style="stroke:#90353B;stroke-width:8.64"/>
	<line x1="3072.59" y1="2191.06" x2="3083.48" y2="2195.02" style="stroke:#90353B;stroke-width:8.64"/>
	<line x1="3083.48" y1="2195.02" x2="3094.24" y2="2198.86" style="stroke:#90353B;stroke-width:8.64"/>
	<line x1="3094.24" y1="2198.86" x2="3105.01" y2="2202.45" style="stroke:#90353B;stroke-width:8.64"/>
	<line x1="3105.01" y1="2202.45" x2="3112.81" y2="2205.05" style="stroke:#90353B;stroke-width:8.64"/>
	<line x1="3140.40" y1="2213.59" x2="3148.20" y2="2215.94" style="stroke:#90353B;stroke-width:8.64"/>
	<line x1="3148.20" y1="2215.94" x2="3158.97" y2="2219.03" style="stroke:#90353B;stroke-width:8.64"/>
	<line x1="3158.97" y1="2219.03" x2="3169.73" y2="2222.00" style="stroke:#90353B;stroke-width:8.64"/>
	<line x1="3169.73" y1="2222.00" x2="3180.50" y2="2224.85" style="stroke:#90353B;stroke-width:8.64"/>
	<line x1="3180.50" y1="2224.85" x2="3191.39" y2="2227.69" style="stroke:#90353B;stroke-width:8.64"/>
	<line x1="3191.39" y1="2227.69" x2="3195.84" y2="2228.81" style="stroke:#90353B;stroke-width:8.64"/>
	<line x1="3223.93" y1="2235.49" x2="3234.45" y2="2237.84" style="stroke:#90353B;stroke-width:8.64"/>
	<line x1="3234.45" y1="2237.84" x2="3245.34" y2="2240.19" style="stroke:#90353B;stroke-width:8.64"/>
	<line x1="3245.34" y1="2240.19" x2="3256.11" y2="2242.42" style="stroke:#90353B;stroke-width:8.64"/>
	<line x1="3256.11" y1="2242.42" x2="3266.88" y2="2244.65" style="stroke:#90353B;stroke-width:8.64"/>
	<line x1="3266.88" y1="2244.65" x2="3277.64" y2="2246.75" style="stroke:#90353B;stroke-width:8.64"/>
	<line x1="3277.64" y1="2246.75" x2="3280.36" y2="2247.25" style="stroke:#90353B;stroke-width:8.64"/>
	<line x1="3308.70" y1="2252.32" x2="3310.07" y2="2252.57" style="stroke:#90353B;stroke-width:8.64"/>
	<line x1="3310.07" y1="2252.57" x2="3320.83" y2="2254.42" style="stroke:#90353B;stroke-width:8.64"/>
	<line x1="3320.83" y1="2254.42" x2="3331.60" y2="2256.16" style="stroke:#90353B;stroke-width:8.64"/>
	<line x1="3331.60" y1="2256.16" x2="3342.49" y2="2257.89" style="stroke:#90353B;stroke-width:8.64"/>
	<line x1="3342.49" y1="2257.89" x2="3353.25" y2="2259.62" style="stroke:#90353B;stroke-width:8.64"/>
	<line x1="3353.25" y1="2259.62" x2="3364.02" y2="2261.11" style="stroke:#90353B;stroke-width:8.64"/>
	<line x1="3364.02" y1="2261.11" x2="3365.63" y2="2261.35" style="stroke:#90353B;stroke-width:8.64"/>
	<line x1="3394.09" y1="2265.31" x2="3396.44" y2="2265.56" style="stroke:#90353B;stroke-width:8.64"/>
	<line x1="3396.44" y1="2265.56" x2="3407.21" y2="2267.05" style="stroke:#90353B;stroke-width:8.64"/>
	<line x1="3407.21" y1="2267.05" x2="3417.97" y2="2268.28" style="stroke:#90353B;stroke-width:8.64"/>
	<line x1="3417.97" y1="2268.28" x2="3428.74" y2="2269.65" style="stroke:#90353B;stroke-width:8.64"/>
	<line x1="3428.74" y1="2269.65" x2="3439.51" y2="2270.88" style="stroke:#90353B;stroke-width:8.64"/>
	<line x1="3439.51" y1="2270.88" x2="3450.40" y2="2272.12" style="stroke:#90353B;stroke-width:8.64"/>
	<line x1="3450.40" y1="2272.12" x2="3451.26" y2="2272.24" style="stroke:#90353B;stroke-width:8.64"/>
	<line x1="3479.97" y1="2275.09" x2="3482.70" y2="2275.46" style="stroke:#90353B;stroke-width:8.64"/>
	<line x1="3482.70" y1="2275.46" x2="3493.46" y2="2276.58" style="stroke:#90353B;stroke-width:8.64"/>
	<line x1="3493.46" y1="2276.58" x2="3504.35" y2="2277.57" style="stroke:#90353B;stroke-width:8.64"/>
	<line x1="3504.35" y1="2277.57" x2="3515.12" y2="2278.56" style="stroke:#90353B;stroke-width:8.64"/>
	<line x1="3515.12" y1="2278.56" x2="3525.89" y2="2279.55" style="stroke:#90353B;stroke-width:8.64"/>
	<line x1="3525.89" y1="2279.55" x2="3536.65" y2="2280.41" style="stroke:#90353B;stroke-width:8.64"/>
	<line x1="3536.65" y1="2280.41" x2="3537.15" y2="2280.54" style="stroke:#90353B;stroke-width:8.64"/>
	<line x1="3565.86" y1="2282.76" x2="3569.07" y2="2283.01" style="stroke:#90353B;stroke-width:8.64"/>
	<line x1="3569.07" y1="2283.01" x2="3579.84" y2="2283.88" style="stroke:#90353B;stroke-width:8.64"/>
	<line x1="3579.84" y1="2283.88" x2="3590.61" y2="2284.62" style="stroke:#90353B;stroke-width:8.64"/>
	<line x1="3590.61" y1="2284.62" x2="3601.37" y2="2285.36" style="stroke:#90353B;stroke-width:8.64"/>
	<line x1="3601.37" y1="2285.36" x2="3612.26" y2="2286.11" style="stroke:#90353B;stroke-width:8.64"/>
	<line x1="3612.26" y1="2286.11" x2="3623.03" y2="2286.85" style="stroke:#90353B;stroke-width:8.64"/>
	<line x1="3623.03" y1="2286.85" x2="3623.40" y2="2286.85" style="stroke:#90353B;stroke-width:8.64"/>
	<line x1="3652.11" y1="2288.70" x2="3655.33" y2="2288.83" style="stroke:#90353B;stroke-width:8.64"/>
	<line x1="3655.33" y1="2288.83" x2="3666.22" y2="2289.45" style="stroke:#90353B;stroke-width:8.64"/>
	<line x1="3666.22" y1="2289.45" x2="3676.98" y2="2290.07" style="stroke:#90353B;stroke-width:8.64"/>
	<line x1="3676.98" y1="2290.07" x2="3687.75" y2="2290.68" style="stroke:#90353B;stroke-width:8.64"/>
	<line x1="3687.75" y1="2290.68" x2="3698.52" y2="2291.18" style="stroke:#90353B;stroke-width:8.64"/>
	<line x1="3698.52" y1="2291.18" x2="3709.28" y2="2291.80" style="stroke:#90353B;stroke-width:8.64"/>
	<line x1="3709.28" y1="2291.80" x2="3709.78" y2="2291.80" style="stroke:#90353B;stroke-width:8.64"/>
	<line x1="3738.49" y1="2293.16" x2="3741.70" y2="2293.28" style="stroke:#90353B;stroke-width:8.64"/>
	<line x1="3741.70" y1="2293.28" x2="3752.47" y2="2293.78" style="stroke:#90353B;stroke-width:8.64"/>
	<line x1="3752.47" y1="2293.78" x2="3763.24" y2="2294.27" style="stroke:#90353B;stroke-width:8.64"/>
	<line x1="3763.24" y1="2294.27" x2="3774.13" y2="2294.77" style="stroke:#90353B;stroke-width:8.64"/>
	<line x1="3774.13" y1="2294.77" x2="3784.89" y2="2295.14" style="stroke:#90353B;stroke-width:8.64"/>
	<line x1="3784.89" y1="2295.14" x2="3795.66" y2="2295.63" style="stroke:#90353B;stroke-width:8.64"/>
	<path d="" stroke-linejoin="round" style="fill:none;stroke:#90353B;stroke-width:8.64"/>
	<path d=" M2182.33 2311.35 L2187.78 2310.73 L2193.10 2306.77 L2198.54 2297.24 L2203.99 2280.91 L2209.31 2257.27 L2214.75 2226.46 L2220.07 2188.59 L2225.52 2144.28 L2230.97 2094.29 L2236.29 2039.46 L2241.73 1980.68 L2247.05 1918.56 L2252.50 1853.96 L2257.94 1787.75 L2263.26 1720.55 L2268.71 1652.98 L2274.15 1585.53 L2279.47 1518.95 L2284.92 1453.49 L2290.24 1389.63 L2295.69 1327.63 L2301.13 1267.86 L2306.45 1210.31 L2311.90 1155.37 L2317.22 1103.14 L2322.66 1053.76 L2328.11 1007.23 L2333.43 963.55 L2338.88 922.71 L2344.20 884.96 L2349.64 850.07 L2355.09 817.89 L2360.41 788.68 L2365.85 762.08 L2371.17 738.19 L2376.62 717.03 L2382.06 698.22 L2387.39 681.76 L2392.83 667.78 L2398.15 655.90 L2403.60 646.24 L2409.04 638.45 L2414.36 632.75 L2419.81 628.79 L2425.13 626.57 L2430.57 625.95 L2436.02 626.94 L2441.34 629.29 L2446.78 633.12 L2452.11 638.20 L2457.55 644.39 L2463.00 651.81 L2468.32 660.23 L2473.76 669.63 L2479.08 679.90 L2484.53 691.04 L2489.97 702.92 L2495.30 715.42 L2500.74 728.66 L2506.06 742.52 L2511.51 756.88 L2516.95 771.73 L2522.27 787.07 L2527.72 802.67 L2533.04 818.76 L2538.48 835.09 L2543.93 851.80 L2549.25 868.63 L2554.70 885.71 L2560.02 902.91 L2565.46 920.36 L2570.91 937.81 L2576.23 955.50 L2581.67 973.08 L2586.99 990.90 L2592.44 1008.59 L2597.88 1026.29 L2603.20 1044.11 L2608.65 1061.81 L2613.97 1079.38 L2619.42 1096.95 L2624.86 1114.53 L2630.18 1131.85 L2635.63 1149.18 L2640.95 1166.38 L2646.39 1183.46 L2651.84 1200.41 L2657.16 1217.24 L2662.61 1233.95 L2667.93 1250.41 L2673.37 1266.74 L2678.82 1282.96 L2684.14 1299.04 L2689.58 1314.88 L2694.90 1330.48 L2700.35 1346.07 L2705.79 1361.29 L2711.11 1376.39 L2716.56 1391.36 L2721.88 1406.09 L2727.33 1420.69 L2732.77 1435.05 L2738.09 1449.16 L2743.54 1463.14 L2748.86 1476.88 L2754.30 1490.49 L2759.75 1503.86 L2765.07 1516.97 L2770.51 1529.97 L2775.84 1542.84 L2781.28 1555.34 L2786.73 1567.84 L2792.05 1579.97 L2797.49 1592.09 L2802.81 1603.85 L2808.26 1615.48 L2813.70 1626.99 L2819.03 1638.25 L2824.47 1649.39 L2829.79 1660.28 L2835.24 1671.05 L2840.68 1681.69 L2846.00 1692.09 L2851.45 1702.23 L2856.77 1712.38 L2862.21 1722.28 L2867.66 1731.94 L2872.98 1741.59 L2878.43 1750.87 L2883.75 1760.15 L2889.19 1769.31 L2894.64 1778.22 L2899.96 1787.01 L2905.40 1795.54 L2910.72 1804.08 L2916.17 1812.38 L2921.61 1820.54 L2926.93 1828.71 L2932.38 1836.51 L2937.70 1844.30 L2943.15 1851.98 L2948.59 1859.53 L2953.91 1866.83 L2959.36 1874.13 L2964.68 1881.18 L2970.12 1888.24 L2975.57 1895.17 L2980.89 1901.85 L2986.34 1908.53 L2991.66 1914.97 L2997.10 1921.40 L3002.55 1927.71 L3007.87 1933.90 L3013.31 1939.97 L3018.63 1945.91 L3024.08 1951.85 L3029.52 1957.54 L3034.84 1963.23 L3040.29 1968.80 L3045.61 1974.25 L3051.06 1979.69 L3056.50 1984.89 L3061.82 1990.09 L3067.27 1995.16 L3072.59 2000.23 L3078.03 2005.18 L3083.48 2010.01 L3088.80 2014.71 L3094.24 2019.42 L3099.57 2023.99 L3105.01 2028.45 L3110.46 2032.90 L3115.78 2037.24 L3121.22 2041.44 L3126.54 2045.65 L3131.99 2049.86 L3137.43 2053.82 L3142.76 2057.90 L3148.20 2061.74 L3153.52 2065.58 L3158.97 2069.41 L3164.41 2073.12 L3169.73 2076.71 L3175.18 2080.30 L3180.50 2083.89 L3185.94 2087.36 L3191.39 2090.82 L3196.71 2094.16 L3202.16 2097.38 L3207.48 2100.60 L3212.92 2103.82 L3218.37 2106.91 L3223.69 2110.00 L3229.13 2113.10 L3234.45 2116.07 L3239.90 2118.91 L3245.34 2121.76 L3250.66 2124.61 L3256.11 2127.45 L3261.43 2130.18 L3266.88 2132.77 L3272.32 2135.50 L3277.64 2137.97 L3283.09 2140.57 L3288.53 2143.05 L3293.85 2145.52 L3299.30 2148.00 L3304.62 2150.35 L3310.07 2152.70 L3315.51 2155.05 L3320.83 2157.28 L3326.28 2159.50 L3331.60 2161.73 L3337.04 2163.84 L3342.49 2165.94 L3347.81 2168.04 L3353.25 2170.15 L3358.57 2172.13 L3364.02 2174.11 L3369.47 2176.09 L3374.79 2177.94 L3380.23 2179.92 L3385.55 2181.78 L3391.00 2183.51 L3396.44 2185.37 L3401.76 2187.10 L3407.21 2188.83 L3412.53 2190.57 L3417.97 2192.30 L3423.42 2193.91 L3428.74 2195.52 L3434.19 2197.13 L3439.51 2198.73 L3444.95 2200.34 L3450.40 2201.83 L3455.72 2203.31 L3461.16 2204.80 L3466.49 2206.28 L3471.93 2207.77 L3477.38 2209.13 L3482.70 2210.49 L3488.14 2211.85 L3493.46 2213.21 L3498.91 2214.58 L3504.35 2215.94 L3509.67 2217.17 L3515.12 2218.41 L3520.44 2219.65 L3525.89 2220.89 L3531.33 2222.12 L3536.65 2223.36 L3542.10 2224.48 L3547.42 2225.59 L3552.86 2226.83 L3558.31 2227.94 L3563.63 2229.05 L3569.07 2230.04 L3574.39 2231.16 L3579.84 2232.27 L3585.28 2233.26 L3590.61 2234.25 L3596.05 2235.24 L3601.37 2236.23 L3606.82 2237.22 L3612.26 2238.21 L3617.58 2239.20 L3623.03 2240.07 L3628.35 2240.94 L3633.80 2241.93 L3639.24 2242.79 L3644.56 2243.66 L3650.01 2244.52 L3655.33 2245.39 L3660.77 2246.26 L3666.22 2247.00 L3671.54 2247.87 L3676.98 2248.61 L3682.30 2249.47 L3687.75 2250.22 L3693.20 2250.96 L3698.52 2251.83 L3703.96 2252.57 L3709.28 2253.19 L3714.73 2253.93 L3720.17 2254.67 L3725.49 2255.41 L3730.94 2256.03 L3736.26 2256.78 L3741.70 2257.39 L3747.15 2258.14 L3752.47 2258.76 L3757.92 2259.37 L3763.24 2259.99 L3768.68 2260.61 L3774.13 2261.23 L3779.45 2261.85 L3784.89 2262.47 L3790.22 2263.09 L3795.66 2263.71" stroke-linejoin="round" style="fill:none;stroke:#55752F;stroke-width:8.64"/>
	<path d=" M2182.33 2311.35 L2187.78 2303.55 L2193.10 2295.88 L2198.54 2288.21 L2203.99 2280.78 L2209.31 2273.36 L2214.75 2266.06 L2220.07 2258.88 L2225.52 2251.70 L2230.97 2244.77 L2236.29 2237.84 L2241.73 2231.03 L2247.05 2224.35 L2252.50 2217.67 L2257.94 2211.11 L2263.26 2204.68 L2268.71 2198.36 L2274.15 2192.05 L2279.47 2185.86 L2284.92 2179.80 L2290.24 2173.86 L2295.69 2167.92 L2301.13 2162.10 L2306.45 2156.29 L2311.90 2150.72 L2317.22 2145.15 L2322.66 2139.58 L2328.11 2134.14 L2333.43 2128.81 L2338.88 2123.62 L2344.20 2118.42 L2349.64 2113.34 L2355.09 2108.27 L2360.41 2103.32 L2365.85 2098.49 L2371.17 2093.67 L2376.62 2088.97 L2382.06 2084.26 L2387.39 2079.68 L2392.83 2075.23 L2398.15 2070.77 L2403.60 2066.32 L2409.04 2062.11 L2414.36 2057.78 L2419.81 2053.70 L2425.13 2049.61 L2430.57 2045.53 L2436.02 2041.57 L2441.34 2037.61 L2446.78 2033.77 L2452.11 2030.06 L2457.55 2026.35 L2463.00 2022.63 L2468.32 2019.04 L2473.76 2015.58 L2479.08 2012.11 L2484.53 2008.65 L2489.97 2005.31 L2495.30 2002.09 L2500.74 1998.75 L2506.06 1995.65 L2511.51 1992.44 L2516.95 1989.47 L2522.27 1986.37 L2527.72 1983.40 L2533.04 1980.56 L2538.48 1977.71 L2543.93 1974.86 L2549.25 1972.14 L2554.70 1969.42 L2560.02 1966.82 L2565.46 1964.22 L2570.91 1961.75 L2576.23 1959.15 L2581.67 1956.80 L2586.99 1954.32 L2592.44 1951.97 L2597.88 1949.74 L2603.20 1947.51 L2608.65 1945.29 L2613.97 1943.06 L2619.42 1940.96 L2624.86 1938.85 L2630.18 1936.87 L2635.63 1934.89 L2640.95 1932.91 L2646.39 1931.06 L2651.84 1929.20 L2657.16 1927.34 L2662.61 1925.61 L2667.93 1923.88 L2673.37 1922.15 L2678.82 1920.54 L2684.14 1918.93 L2689.58 1917.32 L2694.90 1915.83 L2700.35 1914.22 L2705.79 1912.86 L2711.11 1911.38 L2716.56 1910.02 L2721.88 1908.66 L2727.33 1907.29 L2732.77 1906.06 L2738.09 1904.82 L2743.54 1903.58 L2748.86 1902.47 L2754.30 1901.23 L2759.75 1900.12 L2765.07 1899.13 L2770.51 1898.01 L2775.84 1897.02 L2781.28 1896.03 L2786.73 1895.17 L2792.05 1894.18 L2797.49 1893.31 L2802.81 1892.44 L2808.26 1891.58 L2813.70 1890.84 L2819.03 1890.09 L2824.47 1889.35 L2829.79 1888.61 L2835.24 1887.99 L2840.68 1887.25 L2846.00 1886.63 L2851.45 1886.01 L2856.77 1885.51 L2862.21 1884.90 L2867.66 1884.40 L2872.98 1883.91 L2878.43 1883.41 L2883.75 1883.04 L2889.19 1882.67 L2894.64 1882.17 L2899.96 1881.80 L2905.40 1881.55 L2910.72 1881.18 L2916.17 1880.94 L2921.61 1880.56 L2926.93 1880.32 L2932.38 1880.19 L2937.70 1879.94 L2943.15 1879.70 L2948.59 1879.57 L2953.91 1879.45 L2959.36 1879.33 L2964.68 1879.20 L2970.12 1879.08 L2975.57 1879.08 L2980.89 1879.08 L2986.34 1878.95 L2991.66 1878.95 L2997.10 1879.08 L3002.55 1879.08 L3007.87 1879.08 L3013.31 1879.20 L3018.63 1879.33 L3024.08 1879.45 L3029.52 1879.57 L3034.84 1879.70 L3040.29 1879.82 L3045.61 1880.07 L3051.06 1880.19 L3056.50 1880.44 L3061.82 1880.69 L3067.27 1880.94 L3072.59 1881.18 L3078.03 1881.43 L3083.48 1881.80 L3088.80 1882.05 L3094.24 1882.42 L3099.57 1882.67 L3105.01 1883.04 L3110.46 1883.41 L3115.78 1883.78 L3121.22 1884.28 L3126.54 1884.65 L3131.99 1885.02 L3137.43 1885.51 L3142.76 1885.89 L3148.20 1886.38 L3153.52 1886.88 L3158.97 1887.37 L3164.41 1887.87 L3169.73 1888.36 L3175.18 1888.86 L3180.50 1889.47 L3185.94 1889.97 L3191.39 1890.59 L3196.71 1891.08 L3202.16 1891.70 L3207.48 1892.32 L3212.92 1892.94 L3218.37 1893.56 L3223.69 1894.18 L3229.13 1894.80 L3234.45 1895.41 L3239.90 1896.03 L3245.34 1896.78 L3250.66 1897.39 L3256.11 1898.14 L3261.43 1898.76 L3266.88 1899.50 L3272.32 1900.24 L3277.64 1900.86 L3283.09 1901.60 L3288.53 1902.34 L3293.85 1903.09 L3299.30 1903.83 L3304.62 1904.57 L3310.07 1905.44 L3315.51 1906.18 L3320.83 1906.92 L3326.28 1907.79 L3331.60 1908.53 L3337.04 1909.40 L3342.49 1910.14 L3347.81 1911.01 L3353.25 1911.87 L3358.57 1912.62 L3364.02 1913.48 L3369.47 1914.35 L3374.79 1915.21 L3380.23 1916.08 L3385.55 1916.95 L3391.00 1917.81 L3396.44 1918.68 L3401.76 1919.55 L3407.21 1920.41 L3412.53 1921.40 L3417.97 1922.27 L3423.42 1923.14 L3428.74 1924.00 L3434.19 1924.99 L3439.51 1925.86 L3444.95 1926.85 L3450.40 1927.71 L3455.72 1928.70 L3461.16 1929.69 L3466.49 1930.56 L3471.93 1931.55 L3477.38 1932.54 L3482.70 1933.41 L3488.14 1934.40 L3493.46 1935.39 L3498.91 1936.38 L3504.35 1937.37 L3509.67 1938.23 L3515.12 1939.22 L3520.44 1940.21 L3525.89 1941.20 L3531.33 1942.19 L3536.65 1943.18 L3542.10 1944.17 L3547.42 1945.16 L3552.86 1946.28 L3558.31 1947.27 L3563.63 1948.26 L3569.07 1949.25 L3574.39 1950.24 L3579.84 1951.23 L3585.28 1952.34 L3590.61 1953.33 L3596.05 1954.32 L3601.37 1955.43 L3606.82 1956.42 L3612.26 1957.41 L3617.58 1958.53 L3623.03 1959.52 L3628.35 1960.51 L3633.80 1961.62 L3639.24 1962.61 L3644.56 1963.60 L3650.01 1964.72 L3655.33 1965.71 L3660.77 1966.82 L3666.22 1967.81 L3671.54 1968.92 L3676.98 1969.91 L3682.30 1971.03 L3687.75 1972.02 L3693.20 1973.13 L3698.52 1974.12 L3703.96 1975.24 L3709.28 1976.23 L3714.73 1977.34 L3720.17 1978.33 L3725.49 1979.44 L3730.94 1980.56 L3736.26 1981.55 L3741.70 1982.66 L3747.15 1983.65 L3752.47 1984.76 L3757.92 1985.75 L3763.24 1986.87 L3768.68 1987.98 L3774.13 1988.97 L3779.45 1990.09 L3784.89 1991.08 L3790.22 1992.19 L3795.66 1993.30" stroke-linejoin="round" style="fill:none;stroke:#E37E00;stroke-width:8.64"/>
	<line x1="505.77" y1="2374.71" x2="505.77" y2="367.55" style="stroke:#000000;stroke-width:5.76"/>
	<line x1="505.77" y1="2311.35" x2="465.80" y2="2311.35" style="stroke:#000000;stroke-width:5.76"/>
	<text x="445.75" y="2346.38" style="font-family:'Helvetica';font-size:99.99px;fill:#000000" text-anchor="end">0.0</text>
	<line x1="505.77" y1="1841.21" x2="465.80" y2="1841.21" style="stroke:#000000;stroke-width:5.76"/>
	<text x="445.75" y="1876.24" style="font-family:'Helvetica';font-size:99.99px;fill:#000000" text-anchor="end">0.2</text>
	<line x1="505.77" y1="1371.07" x2="465.80" y2="1371.07" style="stroke:#000000;stroke-width:5.76"/>
	<text x="445.75" y="1406.10" style="font-family:'Helvetica';font-size:99.99px;fill:#000000" text-anchor="end">0.4</text>
	<line x1="505.77" y1="900.93" x2="465.80" y2="900.93" style="stroke:#000000;stroke-width:5.76"/>
	<text x="445.75" y="935.96" style="font-family:'Helvetica';font-size:99.99px;fill:#000000" text-anchor="end">0.6</text>
	<line x1="505.77" y1="430.91" x2="465.80" y2="430.91" style="stroke:#000000;stroke-width:5.76"/>
	<text x="445.75" y="465.94" style="font-family:'Helvetica';font-size:99.99px;fill:#000000" text-anchor="end">0.8</text>
	<text x="173.25" y="1241.02" style="font-family:'Helvetica';font-size:99.99px;fill:#000000" text-anchor="middle">概</text>
	<text x="173.25" y="1341.01" style="font-family:'Helvetica';font-size:99.99px;fill:#000000" text-anchor="middle">率</text>
	<text x="173.25" y="1441.00" style="font-family:'Helvetica';font-size:99.99px;fill:#000000" text-anchor="middle">密</text>
	<text x="173.25" y="1541.00" style="font-family:'Helvetica';font-size:99.99px;fill:#000000" text-anchor="middle">度</text>
	<line x1="505.77" y1="2374.71" x2="3859.02" y2="2374.71" style="stroke:#000000;stroke-width:5.76"/>
	<line x1="569.13" y1="2374.71" x2="569.13" y2="2414.69" style="stroke:#000000;stroke-width:5.76"/>
	<text x="569.13" y="2504.54" style="font-family:'Helvetica';font-size:99.99px;fill:#000000" text-anchor="middle">-4</text>
	<line x1="1375.73" y1="2374.71" x2="1375.73" y2="2414.69" style="stroke:#000000;stroke-width:5.76"/>
	<text x="1375.73" y="2504.54" style="font-family:'Helvetica';font-size:99.99px;fill:#000000" text-anchor="middle">-2</text>
	<line x1="2182.45" y1="2374.71" x2="2182.45" y2="2414.69" style="stroke:#000000;stroke-width:5.76"/>
	<text x="2182.45" y="2504.54" style="font-family:'Helvetica';font-size:99.99px;fill:#000000" text-anchor="middle">0</text>
	<line x1="2989.06" y1="2374.71" x2="2989.06" y2="2414.69" style="stroke:#000000;stroke-width:5.76"/>
	<text x="2989.06" y="2504.54" style="font-family:'Helvetica';font-size:99.99px;fill:#000000" text-anchor="middle">2</text>
	<line x1="3795.78" y1="2374.71" x2="3795.78" y2="2414.69" style="stroke:#000000;stroke-width:5.76"/>
	<text x="3795.78" y="2504.54" style="font-family:'Helvetica';font-size:99.99px;fill:#000000" text-anchor="middle">4</text>
	<text x="2182.45" y="2614.56" style="font-family:'Helvetica';font-size:99.99px;fill:#000000" text-anchor="middle">数值范围</text>
	<line x1="583.48" y1="495.26" x2="957.95" y2="495.26" style="stroke:#273F6F;stroke-width:8.64"/>
	<line x1="583.48" y1="635.23" x2="641.02" y2="635.23" style="stroke:#90353B;stroke-width:8.64"/>
	<line x1="669.86" y1="635.23" x2="727.40" y2="635.23" style="stroke:#90353B;stroke-width:8.64"/>
	<line x1="756.24" y1="635.23" x2="813.78" y2="635.23" style="stroke:#90353B;stroke-width:8.64"/>
	<line x1="842.61" y1="635.23" x2="900.16" y2="635.23" style="stroke:#90353B;stroke-width:8.64"/>
	<line x1="928.99" y1="635.23" x2="957.95" y2="635.23" style="stroke:#90353B;stroke-width:8.64"/>
	<line x1="583.48" y1="775.32" x2="957.95" y2="775.32" style="stroke:#55752F;stroke-width:8.64"/>
	<line x1="583.48" y1="915.28" x2="957.95" y2="915.28" style="stroke:#E37E00;stroke-width:8.64"/>
	<text x="1017.97" y="530.29" style="font-family:'Helvetica';font-size:99.99px;fill:#000000">正态分布：N(0,1)</text>
	<text x="1017.97" y="670.26" style="font-family:'Helvetica';font-size:99.99px;fill:#000000">t分布：t(4)</text>
	<text x="1017.97" y="810.35" style="font-family:'Helvetica';font-size:99.99px;fill:#000000">F分布：F(8,9)</text>
	<text x="1017.97" y="950.31" style="font-family:'Helvetica';font-size:99.99px;fill:#000000">卡方分布：χ2(4)</text>
	<text x="523.09" y="2737.89" style="font-family:'Helvetica';font-size:79.94px;fill:#000000">CQH绘制于2021年ZZU春季学期</text>
	<text x="2182.45" y="262.14" style="font-family:'Helvetica';font-size:139.96px;fill:#1E2D53" text-anchor="middle">常见数据分布</text>
</svg>
