<?xml version="1.0" encoding="UTF-8" standalone="no"?>
<!-- This is a Stata 16.1 generated SVG file (http://www.stata.com) -->

<svg version="1.1" width="5.50in" height="4.00in" viewBox="0 0 3960 2880" xmlns="http://www.w3.org/2000/svg" xmlns:xlink="http://www.w3.org/1999/xlink">
	<desc>Stata Graph - Graph</desc>
	<rect x="0" y="0" width="3960" height="2880" style="fill:#E1E6F0;stroke:none"/>
	<rect x="0.00" y="0.00" width="3959.88" height="2880.00" style="fill:#E1E6F0"/>
	<rect x="2.88" y="2.88" width="3954.12" height="2874.24" style="fill:none;stroke:#E1E6F0;stroke-width:5.76"/>
	<rect x="63.36" y="63.36" width="1916.64" height="2753.28" style="fill:#E1E6F0"/>
	<rect x="65.52" y="65.52" width="1912.32" height="2748.96" style="fill:none;stroke:#E1E6F0;stroke-width:4.32"/>
	<rect x="327.69" y="138.98" width="1652.31" height="2298.73" style="fill:#FFFFFF"/>
	<rect x="329.85" y="141.14" width="1647.99" height="2294.41" style="fill:none;stroke:#FFFFFF;stroke-width:4.32"/>
	<circle cx="453.05" cy="2189.82" r="19.70" style="fill:#273F6F"/>
	<circle cx="453.05" cy="2189.82" r="16.46" style="fill:none;stroke:#273F6F;stroke-width:6.48"/>
	<circle cx="530.89" cy="2189.82" r="19.70" style="fill:#273F6F"/>
	<circle cx="530.89" cy="2189.82" r="16.46" style="fill:none;stroke:#273F6F;stroke-width:6.48"/>
	<circle cx="608.73" cy="2089.71" r="19.70" style="fill:#273F6F"/>
	<circle cx="608.73" cy="2089.71" r="16.46" style="fill:none;stroke:#273F6F;stroke-width:6.48"/>
	<circle cx="686.57" cy="1889.35" r="19.70" style="fill:#273F6F"/>
	<circle cx="686.57" cy="1889.35" r="16.46" style="fill:none;stroke:#273F6F;stroke-width:6.48"/>
	<circle cx="764.53" cy="1789.23" r="19.70" style="fill:#273F6F"/>
	<circle cx="764.53" cy="1789.23" r="16.46" style="fill:none;stroke:#273F6F;stroke-width:6.48"/>
	<circle cx="842.37" cy="1789.23" r="19.70" style="fill:#273F6F"/>
	<circle cx="842.37" cy="1789.23" r="16.46" style="fill:none;stroke:#273F6F;stroke-width:6.48"/>
	<circle cx="920.21" cy="1688.99" r="19.70" style="fill:#273F6F"/>
	<circle cx="920.21" cy="1688.99" r="16.46" style="fill:none;stroke:#273F6F;stroke-width:6.48"/>
	<circle cx="998.04" cy="1488.64" r="19.70" style="fill:#273F6F"/>
	<circle cx="998.04" cy="1488.64" r="16.46" style="fill:none;stroke:#273F6F;stroke-width:6.48"/>
	<circle cx="1075.88" cy="1288.40" r="19.70" style="fill:#273F6F"/>
	<circle cx="1075.88" cy="1288.40" r="16.46" style="fill:none;stroke:#273F6F;stroke-width:6.48"/>
	<circle cx="1153.72" cy="1188.16" r="19.70" style="fill:#273F6F"/>
	<circle cx="1153.72" cy="1188.16" r="16.46" style="fill:none;stroke:#273F6F;stroke-width:6.48"/>
	<circle cx="1231.68" cy="1188.16" r="19.70" style="fill:#273F6F"/>
	<circle cx="1231.68" cy="1188.16" r="16.46" style="fill:none;stroke:#273F6F;stroke-width:6.48"/>
	<circle cx="1309.52" cy="1088.04" r="19.70" style="fill:#273F6F"/>
	<circle cx="1309.52" cy="1088.04" r="16.46" style="fill:none;stroke:#273F6F;stroke-width:6.48"/>
	<circle cx="1387.36" cy="1088.04" r="19.70" style="fill:#273F6F"/>
	<circle cx="1387.36" cy="1088.04" r="16.46" style="fill:none;stroke:#273F6F;stroke-width:6.48"/>
	<circle cx="1465.20" cy="787.57" r="19.70" style="fill:#273F6F"/>
	<circle cx="1465.20" cy="787.57" r="16.46" style="fill:none;stroke:#273F6F;stroke-width:6.48"/>
	<circle cx="1543.04" cy="887.69" r="19.70" style="fill:#273F6F"/>
	<circle cx="1543.04" cy="887.69" r="16.46" style="fill:none;stroke:#273F6F;stroke-width:6.48"/>
	<circle cx="1620.88" cy="587.21" r="19.70" style="fill:#273F6F"/>
	<circle cx="1620.88" cy="587.21" r="16.46" style="fill:none;stroke:#273F6F;stroke-width:6.48"/>
	<circle cx="1698.84" cy="487.10" r="19.70" style="fill:#273F6F"/>
	<circle cx="1698.84" cy="487.10" r="16.46" style="fill:none;stroke:#273F6F;stroke-width:6.48"/>
	<circle cx="1776.68" cy="487.10" r="19.70" style="fill:#273F6F"/>
	<circle cx="1776.68" cy="487.10" r="16.46" style="fill:none;stroke:#273F6F;stroke-width:6.48"/>
	<circle cx="1854.52" cy="286.74" r="19.70" style="fill:#273F6F"/>
	<circle cx="1854.52" cy="286.74" r="16.46" style="fill:none;stroke:#273F6F;stroke-width:6.48"/>
	<circle cx="1932.36" cy="186.50" r="19.70" style="fill:#273F6F"/>
	<circle cx="1932.36" cy="186.50" r="16.46" style="fill:none;stroke:#273F6F;stroke-width:6.48"/>
	<line x1="327.69" y1="2437.70" x2="327.69" y2="138.98" style="stroke:#000000;stroke-width:4.32"/>
	<line x1="327.69" y1="2390.18" x2="297.74" y2="2390.18" style="stroke:#000000;stroke-width:4.32"/>
	<text x="282.77" y="2416.46" style="font-family:'Helvetica';font-size:74.99px;fill:#000000" text-anchor="end">10</text>
	<line x1="327.69" y1="1889.35" x2="297.74" y2="1889.35" style="stroke:#000000;stroke-width:4.32"/>
	<text x="282.77" y="1915.63" style="font-family:'Helvetica';font-size:74.99px;fill:#000000" text-anchor="end">15</text>
	<line x1="327.69" y1="1388.52" x2="297.74" y2="1388.52" style="stroke:#000000;stroke-width:4.32"/>
	<text x="282.77" y="1414.80" style="font-family:'Helvetica';font-size:74.99px;fill:#000000" text-anchor="end">20</text>
	<line x1="327.69" y1="887.69" x2="297.74" y2="887.69" style="stroke:#000000;stroke-width:4.32"/>
	<text x="282.77" y="913.97" style="font-family:'Helvetica';font-size:74.99px;fill:#000000" text-anchor="end">25</text>
	<line x1="327.69" y1="386.85" x2="297.74" y2="386.85" style="stroke:#000000;stroke-width:4.32"/>
	<text x="282.77" y="413.13" style="font-family:'Helvetica';font-size:74.99px;fill:#000000" text-anchor="end">30</text>
	<text x="117.69" y="1303.21" style="font-family:'Helvetica';font-size:74.99px;fill:#000000" text-anchor="middle">y1</text>
	<line x1="327.69" y1="2437.70" x2="1980.00" y2="2437.70" style="stroke:#000000;stroke-width:4.32"/>
	<line x1="375.21" y1="2437.70" x2="375.21" y2="2467.65" style="stroke:#000000;stroke-width:4.32"/>
	<text x="375.21" y="2535.06" style="font-family:'Helvetica';font-size:74.99px;fill:#000000" text-anchor="middle">10</text>
	<line x1="764.53" y1="2437.70" x2="764.53" y2="2467.65" style="stroke:#000000;stroke-width:4.32"/>
	<text x="764.53" y="2535.06" style="font-family:'Helvetica';font-size:74.99px;fill:#000000" text-anchor="middle">15</text>
	<line x1="1153.85" y1="2437.70" x2="1153.85" y2="2467.65" style="stroke:#000000;stroke-width:4.32"/>
	<text x="1153.85" y="2535.06" style="font-family:'Helvetica';font-size:74.99px;fill:#000000" text-anchor="middle">20</text>
	<line x1="1543.16" y1="2437.70" x2="1543.16" y2="2467.65" style="stroke:#000000;stroke-width:4.32"/>
	<text x="1543.16" y="2535.06" style="font-family:'Helvetica';font-size:74.99px;fill:#000000" text-anchor="middle">25</text>
	<line x1="1932.48" y1="2437.70" x2="1932.48" y2="2467.65" style="stroke:#000000;stroke-width:4.32"/>
	<text x="1932.48" y="2535.06" style="font-family:'Helvetica';font-size:74.99px;fill:#000000" text-anchor="middle">30</text>
	<text x="1153.85" y="2617.60" style="font-family:'Helvetica';font-size:74.99px;fill:#000000" text-anchor="middle">x1</text>
	<text x="340.68" y="2709.96" style="font-family:'Helvetica';font-size:60.02px;fill:#000000">CQH绘制于2021年ZZU春季学期</text>
	<rect x="1980.00" y="63.36" width="1916.52" height="2753.28" style="fill:#E1E6F0"/>
	<rect x="1982.16" y="65.52" width="1912.20" height="2748.96" style="fill:none;stroke:#E1E6F0;stroke-width:4.32"/>
	<rect x="2283.68" y="138.98" width="1612.83" height="2298.73" style="fill:#FFFFFF"/>
	<rect x="2285.84" y="141.14" width="1608.51" height="2294.41" style="fill:none;stroke:#FFFFFF;stroke-width:4.32"/>
	<circle cx="2407.06" cy="2294.64" r="19.70" style="fill:#273F6F"/>
	<circle cx="2407.06" cy="2294.64" r="16.46" style="fill:none;stroke:#273F6F;stroke-width:6.48"/>
	<circle cx="2482.92" cy="1861.26" r="19.70" style="fill:#273F6F"/>
	<circle cx="2482.92" cy="1861.26" r="16.46" style="fill:none;stroke:#273F6F;stroke-width:6.48"/>
	<circle cx="2558.78" cy="1640.98" r="19.70" style="fill:#273F6F"/>
	<circle cx="2558.78" cy="1640.98" r="16.46" style="fill:none;stroke:#273F6F;stroke-width:6.48"/>
	<circle cx="2634.64" cy="1611.52" r="19.70" style="fill:#273F6F"/>
	<circle cx="2634.64" cy="1611.52" r="16.46" style="fill:none;stroke:#273F6F;stroke-width:6.48"/>
	<circle cx="2710.62" cy="1802.60" r="19.70" style="fill:#273F6F"/>
	<circle cx="2710.62" cy="1802.60" r="16.46" style="fill:none;stroke:#273F6F;stroke-width:6.48"/>
	<circle cx="2786.48" cy="1773.15" r="19.70" style="fill:#273F6F"/>
	<circle cx="2786.48" cy="1773.15" r="16.46" style="fill:none;stroke:#273F6F;stroke-width:6.48"/>
	<circle cx="2862.34" cy="1347.18" r="19.70" style="fill:#273F6F"/>
	<circle cx="2862.34" cy="1347.18" r="16.46" style="fill:none;stroke:#273F6F;stroke-width:6.48"/>
	<circle cx="2938.20" cy="1802.60" r="19.70" style="fill:#273F6F"/>
	<circle cx="2938.20" cy="1802.60" r="16.46" style="fill:none;stroke:#273F6F;stroke-width:6.48"/>
	<circle cx="3014.18" cy="1244.35" r="19.70" style="fill:#273F6F"/>
	<circle cx="3014.18" cy="1244.35" r="16.46" style="fill:none;stroke:#273F6F;stroke-width:6.48"/>
	<circle cx="3090.04" cy="1589.49" r="19.70" style="fill:#273F6F"/>
	<circle cx="3090.04" cy="1589.49" r="16.46" style="fill:none;stroke:#273F6F;stroke-width:6.48"/>
	<circle cx="3165.90" cy="1009.21" r="19.70" style="fill:#273F6F"/>
	<circle cx="3165.90" cy="1009.21" r="16.46" style="fill:none;stroke:#273F6F;stroke-width:6.48"/>
	<circle cx="3241.76" cy="1251.65" r="19.70" style="fill:#273F6F"/>
	<circle cx="3241.76" cy="1251.65" r="16.46" style="fill:none;stroke:#273F6F;stroke-width:6.48"/>
	<circle cx="3317.74" cy="1361.79" r="19.70" style="fill:#273F6F"/>
	<circle cx="3317.74" cy="1361.79" r="16.46" style="fill:none;stroke:#273F6F;stroke-width:6.48"/>
	<circle cx="3393.60" cy="1082.72" r="19.70" style="fill:#273F6F"/>
	<circle cx="3393.60" cy="1082.72" r="16.46" style="fill:none;stroke:#273F6F;stroke-width:6.48"/>
	<circle cx="3469.45" cy="781.51" r="19.70" style="fill:#273F6F"/>
	<circle cx="3469.45" cy="781.51" r="16.46" style="fill:none;stroke:#273F6F;stroke-width:6.48"/>
	<circle cx="3545.44" cy="759.48" r="19.70" style="fill:#273F6F"/>
	<circle cx="3545.44" cy="759.48" r="16.46" style="fill:none;stroke:#273F6F;stroke-width:6.48"/>
	<circle cx="3621.30" cy="590.55" r="19.70" style="fill:#273F6F"/>
	<circle cx="3621.30" cy="590.55" r="16.46" style="fill:none;stroke:#273F6F;stroke-width:6.48"/>
	<circle cx="3697.16" cy="1001.91" r="19.70" style="fill:#273F6F"/>
	<circle cx="3697.16" cy="1001.91" r="16.46" style="fill:none;stroke:#273F6F;stroke-width:6.48"/>
	<circle cx="3773.01" cy="678.67" r="19.70" style="fill:#273F6F"/>
	<circle cx="3773.01" cy="678.67" r="16.46" style="fill:none;stroke:#273F6F;stroke-width:6.48"/>
	<circle cx="3849.00" cy="392.18" r="19.70" style="fill:#273F6F"/>
	<circle cx="3849.00" cy="392.18" r="16.46" style="fill:none;stroke:#273F6F;stroke-width:6.48"/>
	<line x1="2283.68" y1="2437.70" x2="2283.68" y2="138.98" style="stroke:#000000;stroke-width:4.32"/>
	<line x1="2283.68" y1="2390.18" x2="2253.74" y2="2390.18" style="stroke:#000000;stroke-width:4.32"/>
	<text x="2238.64" y="2416.46" style="font-family:'Helvetica';font-size:74.99px;fill:#000000" text-anchor="end">100</text>
	<line x1="2283.68" y1="1655.58" x2="2253.74" y2="1655.58" style="stroke:#000000;stroke-width:4.32"/>
	<text x="2238.64" y="1681.86" style="font-family:'Helvetica';font-size:74.99px;fill:#000000" text-anchor="end">200</text>
	<line x1="2283.68" y1="920.98" x2="2253.74" y2="920.98" style="stroke:#000000;stroke-width:4.32"/>
	<text x="2238.64" y="947.26" style="font-family:'Helvetica';font-size:74.99px;fill:#000000" text-anchor="end">300</text>
	<line x1="2283.68" y1="186.50" x2="2253.74" y2="186.50" style="stroke:#000000;stroke-width:4.32"/>
	<text x="2238.64" y="212.78" style="font-family:'Helvetica';font-size:74.99px;fill:#000000" text-anchor="end">400</text>
	<text x="2034.33" y="1303.21" style="font-family:'Helvetica';font-size:74.99px;fill:#000000" text-anchor="middle">y2</text>
	<line x1="2283.68" y1="2437.70" x2="3896.52" y2="2437.70" style="stroke:#000000;stroke-width:4.32"/>
	<line x1="2331.20" y1="2437.70" x2="2331.20" y2="2467.65" style="stroke:#000000;stroke-width:4.32"/>
	<text x="2331.20" y="2535.06" style="font-family:'Helvetica';font-size:74.99px;fill:#000000" text-anchor="middle">100</text>
	<line x1="2710.62" y1="2437.70" x2="2710.62" y2="2467.65" style="stroke:#000000;stroke-width:4.32"/>
	<text x="2710.62" y="2535.06" style="font-family:'Helvetica';font-size:74.99px;fill:#000000" text-anchor="middle">150</text>
	<line x1="3090.04" y1="2437.70" x2="3090.04" y2="2467.65" style="stroke:#000000;stroke-width:4.32"/>
	<text x="3090.04" y="2535.06" style="font-family:'Helvetica';font-size:74.99px;fill:#000000" text-anchor="middle">200</text>
	<line x1="3469.58" y1="2437.70" x2="3469.58" y2="2467.65" style="stroke:#000000;stroke-width:4.32"/>
	<text x="3469.58" y="2535.06" style="font-family:'Helvetica';font-size:74.99px;fill:#000000" text-anchor="middle">250</text>
	<line x1="3849.00" y1="2437.70" x2="3849.00" y2="2467.65" style="stroke:#000000;stroke-width:4.32"/>
	<text x="3849.00" y="2535.06" style="font-family:'Helvetica';font-size:74.99px;fill:#000000" text-anchor="middle">300</text>
	<text x="3090.04" y="2617.60" style="font-family:'Helvetica';font-size:74.99px;fill:#000000" text-anchor="middle">x2</text>
	<text x="2296.68" y="2709.96" style="font-family:'Helvetica';font-size:60.02px;fill:#000000">CQH绘制于2021年ZZU春季学期</text>
</svg>
