<?xml version="1.0" encoding="UTF-8" standalone="no"?>
<!-- This is a Stata 16.1 generated SVG file (http://www.stata.com) -->

<svg version="1.1" width="5.50in" height="4.00in" viewBox="0 0 3960 2880" xmlns="http://www.w3.org/2000/svg" xmlns:xlink="http://www.w3.org/1999/xlink">
	<desc>Stata Graph - Graph</desc>
	<rect x="0" y="0" width="3960" height="2880" style="fill:#E1E6F0;stroke:none"/>
	<rect x="0.00" y="0.00" width="3959.88" height="2880.00" style="fill:#E1E6F0"/>
	<rect x="2.88" y="2.88" width="3954.12" height="2874.24" style="fill:none;stroke:#E1E6F0;stroke-width:5.76"/>
	<rect x="553.29" y="367.55" width="3305.73" height="2007.16" style="fill:#FFFFFF"/>
	<rect x="556.17" y="370.43" width="3299.97" height="2001.40" style="fill:none;stroke:#FFFFFF;stroke-width:5.76"/>
	<circle cx="2079.00" cy="1632.31" r="26.35" style="fill:#273F6F"/>
	<circle cx="2079.00" cy="1632.31" r="22.03" style="fill:none;stroke:#273F6F;stroke-width:8.64"/>
	<circle cx="1665.67" cy="1388.52" r="26.35" style="fill:#273F6F"/>
	<circle cx="1665.67" cy="1388.52" r="22.03" style="fill:none;stroke:#273F6F;stroke-width:8.64"/>
	<circle cx="1506.66" cy="1800.62" r="26.35" style="fill:#273F6F"/>
	<circle cx="1506.66" cy="1800.62" r="22.03" style="fill:none;stroke:#273F6F;stroke-width:8.64"/>
	<circle cx="2396.91" cy="1446.56" r="26.35" style="fill:#273F6F"/>
	<circle cx="2396.91" cy="1446.56" r="22.03" style="fill:none;stroke:#273F6F;stroke-width:8.64"/>
	<circle cx="3223.44" cy="964.91" r="26.35" style="fill:#273F6F"/>
	<circle cx="3223.44" cy="964.91" r="22.03" style="fill:none;stroke:#273F6F;stroke-width:8.64"/>
	<circle cx="3096.22" cy="1202.89" r="26.35" style="fill:#273F6F"/>
	<circle cx="3096.22" cy="1202.89" r="22.03" style="fill:none;stroke:#273F6F;stroke-width:8.64"/>
	<circle cx="1570.26" cy="2038.60" r="26.35" style="fill:#273F6F"/>
	<circle cx="1570.26" cy="2038.60" r="22.03" style="fill:none;stroke:#273F6F;stroke-width:8.64"/>
	<circle cx="2524.01" cy="1429.23" r="26.35" style="fill:#273F6F"/>
	<circle cx="2524.01" cy="1429.23" r="22.03" style="fill:none;stroke:#273F6F;stroke-width:8.64"/>
	<circle cx="2746.51" cy="1080.99" r="26.35" style="fill:#273F6F"/>
	<circle cx="2746.51" cy="1080.99" r="22.03" style="fill:none;stroke:#273F6F;stroke-width:8.64"/>
	<circle cx="2524.01" cy="1359.56" r="26.35" style="fill:#273F6F"/>
	<circle cx="2524.01" cy="1359.56" r="22.03" style="fill:none;stroke:#273F6F;stroke-width:8.64"/>
	<circle cx="3191.64" cy="819.75" r="26.35" style="fill:#273F6F"/>
	<circle cx="3191.64" cy="819.75" r="22.03" style="fill:none;stroke:#273F6F;stroke-width:8.64"/>
	<circle cx="2651.22" cy="1069.36" r="26.35" style="fill:#273F6F"/>
	<circle cx="2651.22" cy="1069.36" r="22.03" style="fill:none;stroke:#273F6F;stroke-width:8.64"/>
	<circle cx="2651.22" cy="843.01" r="26.35" style="fill:#273F6F"/>
	<circle cx="2651.22" cy="843.01" r="22.03" style="fill:none;stroke:#273F6F;stroke-width:8.64"/>
	<circle cx="1347.76" cy="2108.27" r="26.35" style="fill:#273F6F"/>
	<circle cx="1347.76" cy="2108.27" r="22.03" style="fill:none;stroke:#273F6F;stroke-width:8.64"/>
	<circle cx="2905.53" cy="1191.25" r="26.35" style="fill:#273F6F"/>
	<circle cx="2905.53" cy="1191.25" r="22.03" style="fill:none;stroke:#273F6F;stroke-width:8.64"/>
	<circle cx="2301.50" cy="1487.27" r="26.35" style="fill:#273F6F"/>
	<circle cx="2301.50" cy="1487.27" r="22.03" style="fill:none;stroke:#273F6F;stroke-width:8.64"/>
	<circle cx="2524.01" cy="1464.01" r="26.35" style="fill:#273F6F"/>
	<circle cx="2524.01" cy="1464.01" r="22.03" style="fill:none;stroke:#273F6F;stroke-width:8.64"/>
	<circle cx="1856.37" cy="1736.76" r="26.35" style="fill:#273F6F"/>
	<circle cx="1856.37" cy="1736.76" r="22.03" style="fill:none;stroke:#273F6F;stroke-width:8.64"/>
	<circle cx="2428.59" cy="1342.11" r="26.35" style="fill:#273F6F"/>
	<circle cx="2428.59" cy="1342.11" r="22.03" style="fill:none;stroke:#273F6F;stroke-width:8.64"/>
	<circle cx="1347.76" cy="2102.45" r="26.35" style="fill:#273F6F"/>
	<circle cx="1347.76" cy="2102.45" r="22.03" style="fill:none;stroke:#273F6F;stroke-width:8.64"/>
	<circle cx="2714.83" cy="1243.48" r="26.35" style="fill:#273F6F"/>
	<circle cx="2714.83" cy="1243.48" r="22.03" style="fill:none;stroke:#273F6F;stroke-width:8.64"/>
	<circle cx="2714.83" cy="1243.48" r="26.35" style="fill:#273F6F"/>
	<circle cx="2714.83" cy="1243.48" r="22.03" style="fill:none;stroke:#273F6F;stroke-width:8.64"/>
	<circle cx="3159.83" cy="1162.17" r="26.35" style="fill:#273F6F"/>
	<circle cx="3159.83" cy="1162.17" r="22.03" style="fill:none;stroke:#273F6F;stroke-width:8.64"/>
	<circle cx="839.15" cy="2288.21" r="26.35" style="fill:#273F6F"/>
	<circle cx="839.15" cy="2288.21" r="22.03" style="fill:none;stroke:#273F6F;stroke-width:8.64"/>
	<circle cx="1856.37" cy="1794.80" r="26.35" style="fill:#273F6F"/>
	<circle cx="1856.37" cy="1794.80" r="22.03" style="fill:none;stroke:#273F6F;stroke-width:8.64"/>
	<circle cx="3573.16" cy="523.85" r="26.35" style="fill:#273F6F"/>
	<circle cx="3573.16" cy="523.85" r="22.03" style="fill:none;stroke:#273F6F;stroke-width:8.64"/>
	<circle cx="3477.75" cy="593.40" r="26.35" style="fill:#273F6F"/>
	<circle cx="3477.75" cy="593.40" r="22.03" style="fill:none;stroke:#273F6F;stroke-width:8.64"/>
	<circle cx="2555.81" cy="1109.95" r="26.35" style="fill:#273F6F"/>
	<circle cx="2555.81" cy="1109.95" r="22.03" style="fill:none;stroke:#273F6F;stroke-width:8.64"/>
	<circle cx="1538.46" cy="1835.52" r="26.35" style="fill:#273F6F"/>
	<circle cx="1538.46" cy="1835.52" r="22.03" style="fill:none;stroke:#273F6F;stroke-width:8.64"/>
	<circle cx="3191.64" cy="976.54" r="26.35" style="fill:#273F6F"/>
	<circle cx="3191.64" cy="976.54" r="22.03" style="fill:none;stroke:#273F6F;stroke-width:8.64"/>
	<circle cx="2905.53" cy="1173.81" r="26.35" style="fill:#273F6F"/>
	<circle cx="2905.53" cy="1173.81" r="22.03" style="fill:none;stroke:#273F6F;stroke-width:8.64"/>
	<circle cx="2460.40" cy="1377.01" r="26.35" style="fill:#273F6F"/>
	<circle cx="2460.40" cy="1377.01" r="22.03" style="fill:none;stroke:#273F6F;stroke-width:8.64"/>
	<circle cx="3064.42" cy="935.83" r="26.35" style="fill:#273F6F"/>
	<circle cx="3064.42" cy="935.83" r="22.03" style="fill:none;stroke:#273F6F;stroke-width:8.64"/>
	<circle cx="2365.11" cy="1690.35" r="26.35" style="fill:#273F6F"/>
	<circle cx="2365.11" cy="1690.35" r="22.03" style="fill:none;stroke:#273F6F;stroke-width:8.64"/>
	<circle cx="3159.83" cy="976.54" r="26.35" style="fill:#273F6F"/>
	<circle cx="3159.83" cy="976.54" r="22.03" style="fill:none;stroke:#273F6F;stroke-width:8.64"/>
	<circle cx="2460.40" cy="1411.78" r="26.35" style="fill:#273F6F"/>
	<circle cx="2460.40" cy="1411.78" r="22.03" style="fill:none;stroke:#273F6F;stroke-width:8.64"/>
	<circle cx="2460.40" cy="1417.60" r="26.35" style="fill:#273F6F"/>
	<circle cx="2460.40" cy="1417.60" r="22.03" style="fill:none;stroke:#273F6F;stroke-width:8.64"/>
	<circle cx="3096.22" cy="1191.25" r="26.35" style="fill:#273F6F"/>
	<circle cx="3096.22" cy="1191.25" r="22.03" style="fill:none;stroke:#273F6F;stroke-width:8.64"/>
	<circle cx="2524.01" cy="1377.01" r="26.35" style="fill:#273F6F"/>
	<circle cx="2524.01" cy="1377.01" r="22.03" style="fill:none;stroke:#273F6F;stroke-width:8.64"/>
	<circle cx="1888.18" cy="1748.39" r="26.35" style="fill:#273F6F"/>
	<circle cx="1888.18" cy="1748.39" r="22.03" style="fill:none;stroke:#273F6F;stroke-width:8.64"/>
	<circle cx="2714.83" cy="993.87" r="26.35" style="fill:#273F6F"/>
	<circle cx="2714.83" cy="993.87" r="22.03" style="fill:none;stroke:#273F6F;stroke-width:8.64"/>
	<circle cx="1570.26" cy="1440.74" r="26.35" style="fill:#273F6F"/>
	<circle cx="1570.26" cy="1440.74" r="22.03" style="fill:none;stroke:#273F6F;stroke-width:8.64"/>
	<circle cx="1157.06" cy="2288.21" r="26.35" style="fill:#273F6F"/>
	<circle cx="1157.06" cy="2288.21" r="22.03" style="fill:none;stroke:#273F6F;stroke-width:8.64"/>
	<circle cx="1411.37" cy="2056.05" r="26.35" style="fill:#273F6F"/>
	<circle cx="1411.37" cy="2056.05" r="22.03" style="fill:none;stroke:#273F6F;stroke-width:8.64"/>
	<circle cx="1951.79" cy="1870.29" r="26.35" style="fill:#273F6F"/>
	<circle cx="1951.79" cy="1870.29" r="22.03" style="fill:none;stroke:#273F6F;stroke-width:8.64"/>
	<circle cx="2555.81" cy="1400.15" r="26.35" style="fill:#273F6F"/>
	<circle cx="2555.81" cy="1400.15" r="22.03" style="fill:none;stroke:#273F6F;stroke-width:8.64"/>
	<circle cx="2969.13" cy="1185.44" r="26.35" style="fill:#273F6F"/>
	<circle cx="2969.13" cy="1185.44" r="22.03" style="fill:none;stroke:#273F6F;stroke-width:8.64"/>
	<circle cx="2460.40" cy="1318.97" r="26.35" style="fill:#273F6F"/>
	<circle cx="2460.40" cy="1318.97" r="22.03" style="fill:none;stroke:#273F6F;stroke-width:8.64"/>
	<circle cx="2555.81" cy="1469.82" r="26.35" style="fill:#273F6F"/>
	<circle cx="2555.81" cy="1469.82" r="22.03" style="fill:none;stroke:#273F6F;stroke-width:8.64"/>
	<circle cx="2492.20" cy="1475.64" r="26.35" style="fill:#273F6F"/>
	<circle cx="2492.20" cy="1475.64" r="22.03" style="fill:none;stroke:#273F6F;stroke-width:8.64"/>
	<circle cx="2619.42" cy="1347.93" r="26.35" style="fill:#273F6F"/>
	<circle cx="2619.42" cy="1347.93" r="22.03" style="fill:none;stroke:#273F6F;stroke-width:8.64"/>
	<circle cx="1856.37" cy="1771.66" r="26.35" style="fill:#273F6F"/>
	<circle cx="1856.37" cy="1771.66" r="22.03" style="fill:none;stroke:#273F6F;stroke-width:8.64"/>
	<circle cx="2174.29" cy="1690.35" r="26.35" style="fill:#273F6F"/>
	<circle cx="2174.29" cy="1690.35" r="22.03" style="fill:none;stroke:#273F6F;stroke-width:8.64"/>
	<circle cx="1697.48" cy="2131.41" r="26.35" style="fill:#273F6F"/>
	<circle cx="1697.48" cy="2131.41" r="22.03" style="fill:none;stroke:#273F6F;stroke-width:8.64"/>
	<circle cx="1792.89" cy="1794.80" r="26.35" style="fill:#273F6F"/>
	<circle cx="1792.89" cy="1794.80" r="22.03" style="fill:none;stroke:#273F6F;stroke-width:8.64"/>
	<circle cx="1570.26" cy="1957.29" r="26.35" style="fill:#273F6F"/>
	<circle cx="1570.26" cy="1957.29" r="22.03" style="fill:none;stroke:#273F6F;stroke-width:8.64"/>
	<circle cx="1411.37" cy="2160.50" r="26.35" style="fill:#273F6F"/>
	<circle cx="1411.37" cy="2160.50" r="22.03" style="fill:none;stroke:#273F6F;stroke-width:8.64"/>
	<circle cx="1570.26" cy="2009.52" r="26.35" style="fill:#273F6F"/>
	<circle cx="1570.26" cy="2009.52" r="22.03" style="fill:none;stroke:#273F6F;stroke-width:8.64"/>
	<circle cx="2015.39" cy="1736.76" r="26.35" style="fill:#273F6F"/>
	<circle cx="2015.39" cy="1736.76" r="22.03" style="fill:none;stroke:#273F6F;stroke-width:8.64"/>
	<circle cx="1284.15" cy="2096.64" r="26.35" style="fill:#273F6F"/>
	<circle cx="1284.15" cy="2096.64" r="22.03" style="fill:none;stroke:#273F6F;stroke-width:8.64"/>
	<circle cx="1633.87" cy="2032.78" r="26.35" style="fill:#273F6F"/>
	<circle cx="1633.87" cy="2032.78" r="22.03" style="fill:none;stroke:#273F6F;stroke-width:8.64"/>
	<circle cx="902.63" cy="2311.35" r="26.35" style="fill:#273F6F"/>
	<circle cx="902.63" cy="2311.35" r="22.03" style="fill:none;stroke:#273F6F;stroke-width:8.64"/>
	<circle cx="1061.65" cy="2183.64" r="26.35" style="fill:#273F6F"/>
	<circle cx="1061.65" cy="2183.64" r="22.03" style="fill:none;stroke:#273F6F;stroke-width:8.64"/>
	<circle cx="2269.70" cy="1347.93" r="26.35" style="fill:#273F6F"/>
	<circle cx="2269.70" cy="1347.93" r="22.03" style="fill:none;stroke:#273F6F;stroke-width:8.64"/>
	<circle cx="680.13" cy="2270.76" r="26.35" style="fill:#273F6F"/>
	<circle cx="680.13" cy="2270.76" r="22.03" style="fill:none;stroke:#273F6F;stroke-width:8.64"/>
	<circle cx="1379.57" cy="2143.05" r="26.35" style="fill:#273F6F"/>
	<circle cx="1379.57" cy="2143.05" r="22.03" style="fill:none;stroke:#273F6F;stroke-width:8.64"/>
	<circle cx="1697.48" cy="1934.15" r="26.35" style="fill:#273F6F"/>
	<circle cx="1697.48" cy="1934.15" r="22.03" style="fill:none;stroke:#273F6F;stroke-width:8.64"/>
	<circle cx="1411.37" cy="2056.05" r="26.35" style="fill:#273F6F"/>
	<circle cx="1411.37" cy="2056.05" r="22.03" style="fill:none;stroke:#273F6F;stroke-width:8.64"/>
	<circle cx="1729.28" cy="1783.17" r="26.35" style="fill:#273F6F"/>
	<circle cx="1729.28" cy="1783.17" r="22.03" style="fill:none;stroke:#273F6F;stroke-width:8.64"/>
	<circle cx="1633.87" cy="2079.19" r="26.35" style="fill:#273F6F"/>
	<circle cx="1633.87" cy="2079.19" r="22.03" style="fill:none;stroke:#273F6F;stroke-width:8.64"/>
	<circle cx="1093.45" cy="2148.86" r="26.35" style="fill:#273F6F"/>
	<circle cx="1093.45" cy="2148.86" r="22.03" style="fill:none;stroke:#273F6F;stroke-width:8.64"/>
	<circle cx="1093.45" cy="2212.72" r="26.35" style="fill:#273F6F"/>
	<circle cx="1093.45" cy="2212.72" r="22.03" style="fill:none;stroke:#273F6F;stroke-width:8.64"/>
	<circle cx="1125.26" cy="2177.94" r="26.35" style="fill:#273F6F"/>
	<circle cx="1125.26" cy="2177.94" r="22.03" style="fill:none;stroke:#273F6F;stroke-width:8.64"/>
	<circle cx="2301.50" cy="1493.09" r="26.35" style="fill:#273F6F"/>
	<circle cx="2301.50" cy="1493.09" r="22.03" style="fill:none;stroke:#273F6F;stroke-width:8.64"/>
	<line x1="553.29" y1="2374.71" x2="553.29" y2="367.55" style="stroke:#000000;stroke-width:5.76"/>
	<line x1="553.29" y1="2172.00" x2="513.32" y2="2172.00" style="stroke:#000000;stroke-width:5.76"/>
	<text x="493.27" y="2207.03" style="font-family:'Helvetica';font-size:99.99px;fill:#000000" text-anchor="end">2000</text>
	<line x1="553.29" y1="1591.60" x2="513.32" y2="1591.60" style="stroke:#000000;stroke-width:5.76"/>
	<text x="493.27" y="1626.63" style="font-family:'Helvetica';font-size:99.99px;fill:#000000" text-anchor="end">3000</text>
	<line x1="553.29" y1="1011.32" x2="513.32" y2="1011.32" style="stroke:#000000;stroke-width:5.76"/>
	<text x="493.27" y="1046.35" style="font-family:'Helvetica';font-size:99.99px;fill:#000000" text-anchor="end">4000</text>
	<line x1="553.29" y1="430.91" x2="513.32" y2="430.91" style="stroke:#000000;stroke-width:5.76"/>
	<text x="493.27" y="465.94" style="font-family:'Helvetica';font-size:99.99px;fill:#000000" text-anchor="end">5000</text>
	<text x="190.71" y="1371.07" style="font-family:'Helvetica';font-size:99.99px;fill:#000000" transform="rotate(-90 190.71,1371.07)" text-anchor="middle">Weight</text>
	<line x1="553.29" y1="2374.71" x2="3859.02" y2="2374.71" style="stroke:#000000;stroke-width:5.76"/>
	<line x1="616.65" y1="2374.71" x2="616.65" y2="2414.69" style="stroke:#000000;stroke-width:5.76"/>
	<text x="616.65" y="2504.54" style="font-family:'Helvetica';font-size:99.99px;fill:#000000" text-anchor="middle">140</text>
	<line x1="1252.47" y1="2374.71" x2="1252.47" y2="2414.69" style="stroke:#000000;stroke-width:5.76"/>
	<text x="1252.47" y="2504.54" style="font-family:'Helvetica';font-size:99.99px;fill:#000000" text-anchor="middle">160</text>
	<line x1="1888.30" y1="2374.71" x2="1888.30" y2="2414.69" style="stroke:#000000;stroke-width:5.76"/>
	<text x="1888.30" y="2504.54" style="font-family:'Helvetica';font-size:99.99px;fill:#000000" text-anchor="middle">180</text>
	<line x1="2524.13" y1="2374.71" x2="2524.13" y2="2414.69" style="stroke:#000000;stroke-width:5.76"/>
	<text x="2524.13" y="2504.54" style="font-family:'Helvetica';font-size:99.99px;fill:#000000" text-anchor="middle">200</text>
	<line x1="3159.96" y1="2374.71" x2="3159.96" y2="2414.69" style="stroke:#000000;stroke-width:5.76"/>
	<text x="3159.96" y="2504.54" style="font-family:'Helvetica';font-size:99.99px;fill:#000000" text-anchor="middle">220</text>
	<line x1="3795.78" y1="2374.71" x2="3795.78" y2="2414.69" style="stroke:#000000;stroke-width:5.76"/>
	<text x="3795.78" y="2504.54" style="font-family:'Helvetica';font-size:99.99px;fill:#000000" text-anchor="middle">240</text>
	<text x="2206.22" y="2614.56" style="font-family:'Helvetica';font-size:99.99px;fill:#000000" text-anchor="middle">Length</text>
	<text x="570.61" y="2737.89" style="font-family:'Helvetica';font-size:79.94px;fill:#000000">CQH绘制于2021年ZZU春季学期</text>
	<text x="2206.22" y="262.14" style="font-family:'Helvetica';font-size:139.96px;fill:#1E2D53" text-anchor="middle">正相关关系</text>
</svg>
